<svg width="40" height="40" fill="none" xmlns="http://www.w3.org/2000/svg"><rect width="40" height="40" rx="3.676" fill="#0C2241"/><path d="M27.738 17.788a.618.618 0 0 1-.014.165l-1.09 4.903c-.054.247-.25.42-.477.422l-6.537.037h-6.539c-.228 0-.426-.174-.48-.422l-1.09-4.922a.62.62 0 0 1-.013-.17c-.422-.15-.728-.593-.728-1.116 0-.645.466-1.17 1.04-1.17.573 0 1.04.525 1.04 1.17 0 .364-.149.689-.38.903l1.364 1.547c.345.39.823.614 1.312.614.579 0 1.13-.309 1.478-.827l2.242-3.341a1.243 1.243 0 0 1-.305-.827c0-.645.466-1.17 1.04-1.17.573 0 1.04.525 1.04 1.17 0 .313-.11.597-.289.807l.002.003 2.225 3.35c.348.523.901.835 1.482.835a1.74 1.74 0 0 0 1.307-.609l1.373-1.544a1.227 1.227 0 0 1-.389-.91c0-.646.467-1.17 1.04-1.17.574 0 1.04.524 1.04 1.17 0 .508-.29.941-.694 1.102Zm-1.21 7.273c0-.308-.221-.557-.495-.557h-12.81c-.273 0-.495.25-.495.557v1.337c0 .308.222.557.496.557h12.81c.273 0 .495-.25.495-.557V25.06Z" fill="#FFC739"/></svg>