<svg width="22" height="30" fill="none" xmlns="http://www.w3.org/2000/svg"><path d="m21.54 22.571-.024-7.019c0-1.297-1.032-2.354-2.302-2.354-.52 0-.987.153-1.363.415a2.252 2.252 0 0 0-2.194-1.676c-.507 0-.97.162-1.345.437a2.25 2.25 0 0 0-2.182-1.64c-.465 0-.894.136-1.251.37V8.022a4.195 4.195 0 0 0 2.194-3.334h2.72l-.436.634a.479.479 0 0 0 .146.68.527.527 0 0 0 .709-.14l.955-1.39.002-.001.002-.003.002-.004.02-.035c.008-.014.017-.027.023-.042l.002-.005c.005-.012.008-.025.012-.037l.005-.014.011-.04c.003-.014.004-.03.006-.044.001-.016.004-.032.004-.048v-.004c0-.014-.002-.026-.003-.04-.002-.017-.003-.034-.007-.052a.32.32 0 0 0-.013-.044c-.005-.016-.008-.032-.015-.048l-.002-.003c-.006-.016-.015-.03-.023-.044l-.008-.013-.013-.024-.002-.003-.957-1.393a.527.527 0 0 0-.71-.14.48.48 0 0 0-.146.68l.435.635h-2.748C12.738 1.616 10.866 0 8.602 0 6.338 0 4.465 1.616 4.16 3.706H1.463L1.9 3.07a.479.479 0 0 0-.146-.68.527.527 0 0 0-.71.14L.089 3.92l-.001.001-.002.003-.007.012-.012.023a.235.235 0 0 0-.026.046l-.002.005c-.006.014-.01.029-.014.043l-.001.005c-.005.014-.01.028-.013.043a.387.387 0 0 0-.005.049c-.002.014-.005.028-.005.043v.004c0 .015.003.029.005.043a.423.423 0 0 0 .005.05c.003.014.008.028.013.042l.001.005c.005.014.008.029.014.043l.002.005c.007.016.017.03.026.046.004.007.007.016.012.023l.007.011v.001l.002.003v.001l.957 1.39a.524.524 0 0 0 .71.14.479.479 0 0 0 .145-.68l-.436-.634h2.668c.128 1.387.937 2.619 2.194 3.327v5.412c-2.151 1.184-2.56 2.615-2.56 4.94v2.061c0 1.52.273 2.493.514 3.352.04.143.08.284.117.426l.48 1.192.001.003.001.003c.813 1.934 3.288 4.001 7.793 4.001h1.226c4.643 0 7.643-2.681 7.643-6.832v-.001ZM5.136 4.303c0-1.831 1.555-3.321 3.466-3.321 1.91 0 3.466 1.49 3.466 3.32 0 1.022-.437 1.919-1.188 2.525V4.595c0-1.29-1-2.302-2.275-2.302-1.279 0-2.28 1.011-2.28 2.302v2.21a3.245 3.245 0 0 1-1.189-2.502Zm8.76 24.12h-1.225c-3.993 0-6.153-1.748-6.842-3.385l-.448-1.105a30.113 30.113 0 0 0-.113-.407c-.236-.84-.48-1.709-.48-3.098v-2.06c0-2.025.353-2.986 1.537-3.784V18.2c0 .271.229.49.512.49a.501.501 0 0 0 .512-.49V4.595c0-.752.54-1.32 1.255-1.32.712 0 1.25.568 1.25 1.32v12.479c0 .271.229.49.512.49a.501.501 0 0 0 .512-.49v-4.037c0-.753.538-1.32 1.252-1.32.713 0 1.25.567 1.25 1.32v4.037c0 .27.23.49.513.49.282 0 .512-.22.512-.49V14.24c0-.753.538-1.32 1.251-1.32.714 0 1.253.567 1.253 1.32v2.834c0 .27.23.49.513.49.282 0 .512-.22.512-.49v-1.626c0-.734.538-1.267 1.279-1.267.716 0 1.277.603 1.277 1.373l.024 7.02c.002 4.316-3.564 5.848-6.617 5.848Z" fill="#0C0054"/></svg>