<svg width="135" height="40" viewBox="0 0 135 40" fill="none" xmlns="http://www.w3.org/2000/svg">
<path d="M4 0.5H131C132.933 0.5 134.5 2.067 134.5 4V36C134.5 37.933 132.933 39.5 131 39.5H4C2.067 39.5 0.5 37.933 0.5 36V4C0.5 2.067 2.067 0.5 4 0.5Z" stroke="white"/>
<path d="M92.103 17.891V28.065C92.102 29.547 92.785 30.291 94.152 30.295C94.4075 30.2937 94.6624 30.271 94.914 30.227C95.147 30.191 95.375 30.131 95.596 30.049L95.364 28.637C95.195 28.687 95.022 28.717 94.846 28.725C94.7363 28.7349 94.6257 28.7196 94.5228 28.6802C94.4198 28.6409 94.3272 28.5786 94.252 28.498C94.127 28.342 94.064 28.081 94.064 27.714V17.734L92.103 17.891ZM72.269 27.56C72.7045 28.4161 73.3879 29.1211 74.23 29.583C75.081 30.053 76.085 30.284 77.244 30.276C77.9726 30.2751 78.6988 30.1926 79.409 30.03C80.125 29.868 80.822 29.63 81.488 29.32V24.459H76.9V25.997H79.566V28.341C79.216 28.467 78.856 28.561 78.49 28.621C78.11 28.684 77.726 28.716 77.34 28.716C76.495 28.715 75.794 28.529 75.238 28.158C74.6857 27.7892 74.2598 27.2596 74.018 26.641C73.7485 25.9416 73.617 25.1965 73.631 24.447C73.6076 23.6155 73.7795 22.79 74.133 22.037C74.4403 21.4024 74.9321 20.8754 75.544 20.525C76.1901 20.1717 76.9178 19.9944 77.654 20.011C78.6979 20.0332 79.7234 20.2895 80.655 20.761L81.157 19.244C80.0382 18.7015 78.8105 18.4207 77.567 18.423C76.5105 18.407 75.4652 18.6407 74.516 19.105C73.6128 19.5557 72.8643 20.2652 72.366 21.143C71.843 22.049 71.582 23.151 71.582 24.45C71.582 25.645 71.811 26.682 72.269 27.56Z" fill="white"/>
<path fill-rule="evenodd" clip-rule="evenodd" d="M44.824 27.034H49.451L50.607 30.13H52.741L48.106 18.57H46.184L41.653 30.13H43.691L44.824 27.034ZM48.855 25.466H45.406L46.631 22.139C46.805 21.629 46.967 21.129 47.117 20.639C47.282 21.194 47.449 21.699 47.618 22.154L48.855 25.466ZM53.6 21.52C53.643 22.288 53.664 22.99 53.664 23.628L53.67 33.721L55.64 33.553V30.003C56.194 30.1978 56.7768 30.2982 57.364 30.3C58.114 30.315 58.854 30.124 59.503 29.748C60.135 29.3651 60.6368 28.8005 60.943 28.128C61.306 27.319 61.483 26.438 61.458 25.552C61.458 24.592 61.308 23.797 61.007 23.17C60.7757 22.6267 60.3876 22.1647 59.8924 21.843C59.3973 21.5214 58.8174 21.3546 58.227 21.364C57.237 21.364 56.359 21.782 55.594 22.619C55.568 22.2505 55.5199 21.8838 55.45 21.521H53.6V21.52ZM59.44 25.662C59.44 26.7 59.24 27.488 58.838 28.028H58.844C58.444 28.567 57.858 28.837 57.088 28.837C56.828 28.837 56.568 28.809 56.314 28.754C56.0768 28.7054 55.8462 28.6289 55.627 28.526V23.916C55.898 23.629 56.21 23.385 56.552 23.189C56.877 23.009 57.242 22.915 57.614 22.918C57.8715 22.9104 58.127 22.9657 58.3583 23.0789C58.5897 23.1922 58.79 23.36 58.942 23.568C59.283 24.001 59.44 24.699 59.44 25.662ZM62.716 23.628C62.716 22.991 62.695 22.288 62.653 21.521H64.503C64.573 21.884 64.62 22.251 64.647 22.619C65.412 21.782 66.29 21.364 67.28 21.364C67.8704 21.3546 68.4503 21.5214 68.9454 21.843C69.4406 22.1647 69.8287 22.6267 70.06 23.17C70.36 23.797 70.51 24.591 70.51 25.552C70.5346 26.4385 70.3586 27.3191 69.995 28.128C69.6885 28.8 69.1872 29.3644 68.556 29.748C67.9068 30.1239 67.167 30.3148 66.417 30.3C65.8298 30.2982 65.247 30.1978 64.693 30.003V33.553L62.716 33.727V23.628ZM67.897 28.028C68.299 27.488 68.5 26.7 68.5 25.662C68.5 24.699 68.333 24.002 68.001 23.569C67.8491 23.3608 67.6489 23.1928 67.4175 23.0794C67.1861 22.9659 66.9306 22.9106 66.673 22.918C66.3019 22.9153 65.9364 23.0087 65.612 23.189C65.269 23.384 64.957 23.629 64.686 23.915V28.526C64.905 28.629 65.135 28.706 65.372 28.754C65.626 28.809 65.886 28.837 66.146 28.837C66.916 28.837 67.5 28.567 67.901 28.027H67.897V28.028ZM88.586 30.13C88.5119 29.7537 88.4667 29.3722 88.451 28.989C88.121 29.372 87.718 29.685 87.266 29.911C86.7556 30.169 86.1899 30.2988 85.618 30.289C85.1513 30.2949 84.6893 30.1958 84.266 29.999C83.8632 29.8087 83.526 29.5031 83.297 29.121C83.047 28.6862 82.9237 28.1902 82.941 27.689C82.9265 27.3087 83.0004 26.9303 83.1569 26.5834C83.3134 26.2366 83.5483 25.9307 83.843 25.69C84.443 25.193 85.446 24.945 86.85 24.944C87.375 24.944 87.899 24.981 88.418 25.057V24.889C88.418 24.128 88.256 23.592 87.932 23.28C87.608 22.969 87.142 22.812 86.537 22.81C86.081 22.815 85.627 22.876 85.187 22.993C84.7558 23.0999 84.3356 23.2472 83.932 23.433L83.619 21.996C84.067 21.806 84.532 21.658 85.008 21.557C85.6047 21.4212 86.215 21.3541 86.827 21.357C87.4762 21.3401 88.1221 21.4558 88.725 21.697C89.255 21.931 89.686 22.343 89.945 22.862C90.238 23.412 90.385 24.152 90.385 25.083V28.506C90.385 28.862 90.405 29.402 90.448 30.126L88.586 30.13ZM87.41 28.536C87.79 28.36 88.132 28.111 88.415 27.802V26.204C87.9782 26.152 87.5389 26.1227 87.099 26.116C86.286 26.116 85.724 26.248 85.412 26.512C85.2576 26.6417 85.135 26.805 85.0535 26.9894C84.972 27.1739 84.9339 27.3745 84.942 27.576C84.942 28.003 85.055 28.316 85.281 28.516C85.537 28.736 85.866 28.847 86.202 28.831C86.622 28.825 87.035 28.724 87.41 28.536Z" fill="white"/>
<path d="M97.008 28.065V17.891L98.97 17.734V27.714C98.97 28.081 99.033 28.342 99.158 28.498C99.2332 28.5785 99.3259 28.6408 99.4288 28.6801C99.5317 28.7194 99.6422 28.7348 99.752 28.725C99.928 28.717 100.102 28.687 100.271 28.637L100.503 30.049C100.282 30.1315 100.053 30.1911 99.82 30.227C99.5683 30.271 99.3134 30.2937 99.058 30.295C97.693 30.291 97.009 29.547 97.008 28.065Z" fill="white"/>
<path fill-rule="evenodd" clip-rule="evenodd" d="M103.04 26.077H108.672V25.557C108.684 24.8354 108.552 24.1187 108.283 23.449C108.035 22.8357 107.614 22.3079 107.071 21.93C106.526 21.55 105.846 21.36 105.033 21.36C104.306 21.3453 103.589 21.533 102.963 21.902C102.353 22.276 101.866 22.822 101.563 23.47C101.211 24.2401 101.039 25.0805 101.061 25.927C101.038 26.737 101.198 27.541 101.532 28.279C101.834 28.9123 102.327 29.4344 102.943 29.771C103.571 30.116 104.343 30.289 105.257 30.289C106.379 30.3066 107.49 30.0668 108.504 29.588L108.075 28.239C107.681 28.405 107.274 28.5371 106.858 28.634C106.451 28.7301 106.034 28.7797 105.616 28.782C103.988 28.782 103.129 27.88 103.04 26.077ZM106.231 23.278C106.539 23.621 106.712 24.136 106.75 24.823H103.089C103.19 24.141 103.407 23.628 103.739 23.283C103.9 23.113 104.095 22.979 104.311 22.8895C104.527 22.8001 104.76 22.7573 104.994 22.764C105.225 22.7542 105.456 22.7953 105.67 22.8842C105.883 22.9732 106.075 23.108 106.231 23.279V23.278Z" fill="white"/>
<path d="M110.26 23.683C110.26 23.21 110.239 22.489 110.196 21.521H112.038C112.071 21.761 112.101 22.046 112.131 22.379C112.161 22.711 112.179 22.982 112.19 23.189C112.389 22.854 112.614 22.535 112.865 22.236C113.082 21.9808 113.344 21.7682 113.639 21.609C113.948 21.4425 114.296 21.3588 114.647 21.366C114.912 21.36 115.176 21.393 115.431 21.461L115.183 23.169C114.976 23.1076 114.761 23.0779 114.545 23.081C114.114 23.0714 113.69 23.195 113.332 23.435C112.901 23.761 112.526 24.156 112.223 24.604V30.134H110.26V23.684V23.683ZM115.902 33.48C116.43 33.6459 116.981 33.7289 117.535 33.726C118.124 33.7431 118.708 33.6175 119.238 33.36C119.733 33.0928 120.154 32.7065 120.463 32.236C120.866 31.6138 121.191 30.9436 121.428 30.241L124.596 21.521H122.609L120.991 26.417C120.788 27.035 120.613 27.657 120.464 28.285C120.337 27.6394 120.169 27.0025 119.962 26.378L118.366 21.527H116.253L119.426 30.207L119.299 30.52C118.864 31.643 118.21 32.204 117.336 32.204C117.144 32.2024 116.951 32.1847 116.762 32.151C116.593 32.1235 116.426 32.0878 116.261 32.044L115.902 33.481V33.48Z" fill="white"/>
<path d="M15.89 7.77698H27.022C27.0223 7.77698 27.0227 7.77698 27.023 7.77698C29.6042 7.7771 31.2224 8.25417 32.2135 9.24486C33.2049 10.2358 33.6835 11.8553 33.688 14.4378V25.567C33.688 28.1493 33.2104 29.7684 32.2193 30.7591C31.2281 31.7499 29.6084 32.227 27.026 32.227H15.895C13.3126 32.227 11.6935 31.7499 10.7028 30.7593C9.71209 29.7687 9.23499 28.1499 9.23499 25.568V14.436C9.23499 11.854 9.71369 10.2349 10.7047 9.24436C11.6958 8.25374 13.3138 7.77698 15.89 7.77698Z" stroke="white"/>
<path d="M18.466 14.527C19.058 15.1196 19.8125 15.5233 20.634 15.6869C21.4555 15.8505 22.3071 15.7666 23.081 15.446C23.8555 15.1261 24.5177 14.5835 24.9836 13.8869C25.4495 13.1903 25.6981 12.3711 25.698 11.533H25.098C25.106 12.0156 25.0178 12.495 24.8387 12.9433C24.6595 13.3915 24.3929 13.7995 24.0545 14.1437C23.716 14.4878 23.3124 14.7611 22.8672 14.9477C22.422 15.1342 21.9442 15.2303 21.4615 15.2303C20.9788 15.2303 20.5009 15.1342 20.0558 14.9477C19.6106 14.7611 19.207 14.4878 18.8685 14.1437C18.53 13.7995 18.2634 13.3915 18.0843 12.9433C17.9051 12.495 17.817 12.0156 17.825 11.533H17.226C17.226 12.656 17.672 13.733 18.466 14.527ZM14.45 20.002H13.775V21.344H12.251V20.002H11.576V23.329H12.251V21.977H13.775V23.329H14.45V20.002ZM16.822 22.736C17.31 22.736 17.578 22.448 17.578 21.906V19.996H18.252V21.876C18.252 22.83 17.719 23.377 16.812 23.377C15.906 23.377 15.386 22.846 15.386 21.905V20.002H16.061V21.883C16.061 22.44 16.334 22.736 16.821 22.736H16.822ZM24.624 20.002L25.378 22.289L26.11 20.003H26.81L25.654 23.329H25.089L24.334 21.145L23.578 23.329H23.018L21.859 20.003H22.578L23.318 22.289L24.072 20.002H24.624ZM29.252 21.897H28.025V22.72H29.868V23.327H27.36V20.005H29.807V20.61H28.025V21.292H29.252V21.897ZM31.342 23.324H30.676V20.002H31.342V23.324Z" fill="white"/>
<path fill-rule="evenodd" clip-rule="evenodd" d="M19.285 23.327L19.586 22.634H21.109L21.408 23.327H22.115L20.655 20.002H20.06L18.595 23.327H19.285ZM20.853 22.035H19.837L20.342 20.844L20.852 22.035H20.853Z" fill="white"/>
<path d="M43.26 13.62C42.807 13.62 42.38 13.55 41.98 13.41C41.5666 13.2503 41.1918 13.005 40.88 12.69L41.51 11.9C41.783 12.153 42.057 12.337 42.33 12.45C42.603 12.557 42.91 12.61 43.25 12.61C43.63 12.61 43.947 12.52 44.2 12.34C44.46 12.153 44.59 11.883 44.59 11.53C44.59 11.183 44.463 10.93 44.21 10.77C43.963 10.61 43.6 10.53 43.12 10.53H42.31V9.66003H42.92C43.4 9.66003 43.743 9.58003 43.95 9.42003C44.163 9.26003 44.27 9.03003 44.27 8.73003C44.27 8.43003 44.167 8.21003 43.96 8.07003C43.753 7.92303 43.49 7.85003 43.17 7.85003C42.89 7.85003 42.633 7.90003 42.4 8.00003C42.1577 8.09868 41.9318 8.23355 41.73 8.40003L41.14 7.63003C41.4 7.38303 41.707 7.19003 42.06 7.05003C42.42 6.91003 42.8 6.84003 43.2 6.84003C43.887 6.84003 44.423 6.99303 44.81 7.30003C45.203 7.60003 45.4 8.02003 45.4 8.56003C45.4 8.89303 45.323 9.18703 45.17 9.44003C45.023 9.69303 44.8 9.88003 44.5 10V10.04C44.853 10.12 45.147 10.297 45.38 10.57C45.613 10.843 45.73 11.19 45.73 11.61C45.73 11.937 45.667 12.227 45.54 12.48C45.413 12.7272 45.2318 12.9426 45.01 13.11C44.79 13.277 44.53 13.403 44.23 13.49C43.93 13.577 43.607 13.62 43.26 13.62ZM48.106 13.62C47.673 13.62 47.323 13.49 47.056 13.23C46.789 12.963 46.656 12.613 46.656 12.18C46.656 11.92 46.709 11.69 46.816 11.49C46.929 11.283 47.103 11.107 47.336 10.96C47.576 10.813 47.876 10.69 48.236 10.59C48.6659 10.4787 49.1039 10.4018 49.546 10.36C49.5402 10.2381 49.5201 10.1173 49.486 10C49.4623 9.88592 49.4108 9.77944 49.336 9.69003C49.268 9.59559 49.1743 9.5227 49.066 9.48003C48.9336 9.42287 48.7902 9.39556 48.646 9.40003C48.406 9.40003 48.169 9.44703 47.936 9.54003C47.709 9.63303 47.486 9.74703 47.266 9.88003L46.846 9.11003C47.1362 8.92843 47.4445 8.77761 47.766 8.66003C48.106 8.53303 48.473 8.47003 48.866 8.47003C49.479 8.47003 49.936 8.65303 50.236 9.02003C50.543 9.38003 50.696 9.90303 50.696 10.59V13.5H49.746L49.666 12.96H49.626C49.406 13.147 49.169 13.303 48.916 13.43C48.669 13.557 48.399 13.62 48.106 13.62ZM48.476 12.72C48.676 12.72 48.856 12.673 49.016 12.58C49.183 12.487 49.359 12.353 49.546 12.18V11.08C49.213 11.12 48.933 11.173 48.706 11.24C48.479 11.307 48.296 11.383 48.156 11.47C48.0324 11.5344 47.9287 11.6312 47.856 11.75C47.7968 11.8536 47.7658 11.9708 47.766 12.09C47.766 12.31 47.833 12.47 47.966 12.57C48.099 12.67 48.269 12.72 48.476 12.72ZM52.172 13.5V8.59003H55.402V9.50003H53.322V13.5H52.172ZM56.49 15.44V8.59003H57.44L57.52 9.11003H57.56C57.768 8.93703 57.998 8.78703 58.25 8.66003C58.504 8.53303 58.768 8.47003 59.04 8.47003C59.348 8.47003 59.618 8.53003 59.85 8.65003C60.09 8.76303 60.294 8.93003 60.46 9.15003C60.628 9.37003 60.754 9.63303 60.84 9.94003C60.928 10.247 60.97 10.59 60.97 10.97C60.97 11.39 60.91 11.767 60.79 12.1C60.69 12.403 60.5339 12.6846 60.33 12.93C60.1442 13.1443 59.9161 13.318 59.66 13.44C59.408 13.56 59.144 13.62 58.87 13.62C58.658 13.62 58.444 13.573 58.23 13.48C58.0043 13.3788 57.7953 13.2439 57.61 13.08L57.64 13.9V15.44H56.49ZM58.63 12.67C58.958 12.67 59.23 12.53 59.45 12.25C59.67 11.963 59.78 11.54 59.78 10.98C59.78 10.487 59.698 10.103 59.53 9.83003C59.364 9.55703 59.094 9.42003 58.72 9.42003C58.374 9.42003 58.014 9.60303 57.64 9.97003V12.26C57.82 12.413 57.994 12.52 58.16 12.58C58.328 12.64 58.484 12.67 58.63 12.67ZM62.507 15.52C62.374 15.52 62.257 15.51 62.157 15.49C62.0581 15.477 61.9609 15.4535 61.867 15.42L62.077 14.52C62.124 14.533 62.177 14.547 62.237 14.56C62.303 14.58 62.367 14.59 62.427 14.59C62.687 14.59 62.894 14.51 63.047 14.35C63.207 14.197 63.327 13.997 63.407 13.75L63.497 13.44L61.567 8.59003H62.737L63.587 11C63.66 11.213 63.73 11.44 63.797 11.68L64.017 12.38H64.057L64.237 11.69L64.427 11L65.167 8.59003H66.277L64.497 13.72C64.397 14 64.287 14.25 64.167 14.47C64.047 14.69 63.907 14.877 63.747 15.03C63.5959 15.1885 63.4114 15.3115 63.207 15.39C63.007 15.477 62.773 15.52 62.507 15.52ZM68.542 13.62C68.202 13.62 67.879 13.58 67.572 13.5C67.2417 13.3975 66.9331 13.2348 66.662 13.02L67.132 12.28C67.345 12.447 67.562 12.563 67.782 12.63C68.009 12.697 68.229 12.73 68.442 12.73C68.742 12.73 68.992 12.667 69.192 12.54C69.2872 12.4885 69.3664 12.4118 69.4211 12.3184C69.4757 12.2249 69.5037 12.1183 69.502 12.01C69.502 11.577 69.168 11.36 68.502 11.36H67.772V10.58H68.402C68.715 10.58 68.948 10.527 69.102 10.42C69.1754 10.3684 69.2349 10.2993 69.275 10.219C69.3152 10.1388 69.3348 10.0498 69.332 9.96003C69.332 9.76003 69.252 9.61003 69.092 9.51003C68.939 9.41003 68.728 9.36003 68.462 9.36003C68.208 9.36003 67.985 9.39003 67.792 9.45003C67.598 9.51003 67.405 9.60703 67.212 9.74003L66.762 8.99003C67.015 8.81703 67.285 8.68703 67.572 8.60003C67.865 8.51303 68.185 8.47003 68.532 8.47003C68.785 8.47003 69.025 8.49703 69.252 8.55003C69.485 8.60303 69.689 8.68703 69.862 8.80003C70.042 8.90703 70.182 9.04703 70.282 9.22003C70.388 9.39303 70.442 9.59703 70.442 9.83003C70.442 10.05 70.375 10.26 70.242 10.46C70.109 10.653 69.908 10.797 69.642 10.89V10.93C69.942 11.003 70.182 11.137 70.362 11.33C70.549 11.517 70.642 11.78 70.642 12.12C70.642 12.36 70.582 12.573 70.462 12.76C70.348 12.947 70.192 13.103 69.992 13.23C69.7858 13.3623 69.5596 13.4602 69.322 13.52C69.0674 13.5869 68.8052 13.6205 68.542 13.62ZM71.83 13.5V8.59003H72.95V10.28C72.95 10.533 72.937 10.817 72.91 11.13L72.85 12.06H72.88C72.967 11.907 73.07 11.733 73.19 11.54C73.31 11.34 73.41 11.167 73.49 11.02L75.05 8.59003H76.11V13.5H74.99V11.81C74.99 11.557 75 11.277 75.02 10.97L75.1 10.03H75.06C74.8579 10.3774 74.6546 10.7241 74.45 11.07L72.89 13.5H71.83ZM78.742 13.5V9.50003H77.202V8.59003H81.442V9.50003H79.902V13.5H78.742ZM84.472 13.62C84.132 13.62 83.815 13.563 83.522 13.45C83.228 13.33 82.972 13.16 82.752 12.94C82.5263 12.7113 82.3494 12.4391 82.232 12.14C82.112 11.82 82.052 11.457 82.052 11.05C82.052 10.65 82.115 10.29 82.242 9.97003C82.368 9.65003 82.535 9.38003 82.742 9.16003C82.955 8.94003 83.198 8.77003 83.472 8.65003C83.745 8.53003 84.025 8.47003 84.312 8.47003C84.645 8.47003 84.939 8.52703 85.192 8.64003C85.445 8.75303 85.655 8.91303 85.822 9.12003C85.995 9.32703 86.125 9.57303 86.212 9.86003C86.3312 10.2687 86.3686 10.6969 86.322 11.12C86.315 11.22 86.305 11.3 86.292 11.36H83.172C83.225 11.8 83.379 12.14 83.632 12.38C83.892 12.613 84.222 12.73 84.622 12.73C84.835 12.73 85.032 12.7 85.212 12.64C85.398 12.573 85.582 12.483 85.762 12.37L86.152 13.09C85.918 13.243 85.659 13.37 85.372 13.47C85.085 13.57 84.785 13.62 84.472 13.62ZM83.162 10.58H85.342C85.342 10.2 85.258 9.90303 85.092 9.69003C84.932 9.47003 84.682 9.36003 84.342 9.36003C84.049 9.36003 83.792 9.46303 83.572 9.67003C83.352 9.87703 83.215 10.18 83.162 10.58ZM89.642 13.5V8.59003H91.632C91.905 8.59003 92.155 8.61303 92.382 8.66003C92.615 8.70003 92.815 8.77003 92.982 8.87003C93.155 8.97003 93.289 9.10303 93.382 9.27003C93.482 9.43003 93.532 9.62703 93.532 9.86003C93.532 10.1 93.462 10.313 93.322 10.5C93.189 10.68 92.985 10.81 92.712 10.89V10.93C93.005 11.003 93.249 11.13 93.442 11.31C93.635 11.49 93.732 11.75 93.732 12.09C93.738 12.305 93.6876 12.5178 93.5859 12.7073C93.4841 12.8968 93.3345 13.0563 93.152 13.17C92.972 13.283 92.759 13.367 92.512 13.42C92.272 13.473 92.012 13.5 91.732 13.5H89.642ZM90.772 10.58H91.522C91.842 10.58 92.072 10.527 92.212 10.42C92.2801 10.3693 92.3348 10.3027 92.3714 10.226C92.408 10.1493 92.4254 10.0649 92.422 9.98003C92.4264 9.89457 92.4106 9.80929 92.3758 9.7311C92.3411 9.65291 92.2884 9.58402 92.222 9.53003C92.089 9.42303 91.865 9.37003 91.552 9.37003H90.772V10.58ZM90.772 12.72H91.652C91.985 12.72 92.225 12.657 92.372 12.53C92.4472 12.4686 92.507 12.3905 92.5469 12.3021C92.5868 12.2136 92.6057 12.117 92.602 12.02C92.602 11.82 92.522 11.66 92.362 11.54C92.202 11.42 91.952 11.36 91.612 11.36H90.772V12.72Z" fill="white"/>
</svg>