<svg width="133" height="40" viewBox="0 0 133 40" fill="none" xmlns="http://www.w3.org/2000/svg">
<path d="M132.5 35.99C132.5 37.9519 130.99 39.5 129.17 39.5H3.835C2.01474 39.5 0.5 37.9509 0.5 35.99V4.015C0.5 2.05417 2.01562 0.5 3.835 0.5H129.169C130.989 0.5 132.499 2.05312 132.499 4.015L132.5 35.99Z" stroke="white"/>
<path d="M29.128 19.784C29.099 16.561 31.767 14.993 31.889 14.92C30.378 12.717 28.036 12.416 27.213 12.392C25.246 12.185 23.338 13.569 22.336 13.569C21.314 13.569 19.771 12.412 18.108 12.446C15.968 12.479 13.966 13.718 12.868 15.642C10.602 19.565 12.292 25.33 14.463 28.501C15.549 30.054 16.818 31.788 18.479 31.727C20.104 31.66 20.711 30.691 22.672 30.691C24.615 30.691 25.185 31.727 26.879 31.688C28.623 31.66 29.721 30.128 30.769 28.561C32.024 26.781 32.528 25.028 32.548 24.938C32.507 24.924 29.161 23.647 29.128 19.784ZM25.928 10.306C26.802 9.21298 27.4 7.72598 27.234 6.21698C25.969 6.27298 24.387 7.09198 23.476 8.16098C22.67 9.10298 21.95 10.647 22.136 12.099C23.557 12.205 25.016 11.382 25.928 10.306ZM52.645 31.504H50.374L49.13 27.595H44.806L43.621 31.504H41.41L45.694 18.196H48.34L52.645 31.504ZM48.755 25.955L47.63 22.48C47.511 22.125 47.288 21.289 46.959 19.973H46.919C46.7195 20.8114 46.5089 21.6472 46.287 22.48L45.182 25.955H48.755ZM63.662 26.588C63.662 28.22 63.221 29.51 62.339 30.457C61.549 31.3 60.568 31.721 59.397 31.721C58.133 31.721 57.225 31.267 56.672 30.359H56.632V35.414H54.5V25.067C54.5 24.041 54.473 22.988 54.421 21.908H56.296L56.415 23.429H56.455C57.166 22.283 58.245 21.711 59.693 21.711C60.825 21.711 61.77 22.158 62.526 23.053C63.284 23.949 63.662 25.127 63.662 26.588ZM61.49 26.666C61.49 25.732 61.28 24.962 60.858 24.356C60.397 23.724 59.778 23.408 59.002 23.408C58.476 23.408 57.998 23.584 57.571 23.931C57.143 24.281 56.863 24.738 56.732 25.304C56.666 25.568 56.633 25.784 56.633 25.954V27.554C56.633 28.252 56.847 28.841 57.275 29.322C57.703 29.803 58.259 30.043 58.943 30.043C59.746 30.043 60.371 29.733 60.818 29.115C61.266 28.496 61.49 27.68 61.49 26.666ZM74.699 26.588C74.699 28.22 74.258 29.51 73.375 30.457C72.586 31.3 71.605 31.721 70.434 31.721C69.17 31.721 68.262 31.267 67.71 30.359H67.67V35.414H65.538V25.067C65.538 24.041 65.511 22.988 65.459 21.908H67.334L67.453 23.429H67.493C68.203 22.283 69.282 21.711 70.731 21.711C71.862 21.711 72.807 22.158 73.565 23.053C74.32 23.949 74.699 25.127 74.699 26.588ZM72.527 26.666C72.527 25.732 72.316 24.962 71.894 24.356C71.433 23.724 70.816 23.408 70.039 23.408C69.5149 23.4078 69.0077 23.5931 68.607 23.931C68.179 24.281 67.9 24.738 67.769 25.304C67.704 25.568 67.67 25.784 67.67 25.954V27.554C67.67 28.252 67.884 28.841 68.31 29.322C68.738 29.802 69.294 30.043 69.98 30.043C70.783 30.043 71.408 29.733 71.855 29.115C72.303 28.496 72.527 27.68 72.527 26.666ZM87.039 27.772C87.039 28.904 86.646 29.825 85.857 30.536C84.99 31.313 83.783 31.701 82.232 31.701C80.8 31.701 79.652 31.425 78.783 30.872L79.277 29.095C80.213 29.661 81.24 29.945 82.359 29.945C83.162 29.945 83.787 29.763 84.236 29.401C84.683 29.039 84.906 28.553 84.906 27.947C84.906 27.407 84.722 26.952 84.353 26.583C83.986 26.214 83.373 25.871 82.517 25.554C80.187 24.685 79.023 23.412 79.023 21.738C79.023 20.644 79.431 19.747 80.248 19.049C81.062 18.35 82.148 18.001 83.506 18.001C84.717 18.001 85.723 18.212 86.526 18.633L85.993 20.371C85.243 19.963 84.395 19.759 83.446 19.759C82.696 19.759 82.11 19.944 81.69 20.312C81.5197 20.4626 81.3839 20.6483 81.2919 20.8563C81.1999 21.0642 81.1539 21.2896 81.157 21.517C81.157 22.043 81.36 22.478 81.768 22.82C82.123 23.136 82.768 23.478 83.704 23.847C84.849 24.308 85.69 24.847 86.231 25.465C86.77 26.081 87.039 26.852 87.039 27.772ZM94.088 23.508H91.738V28.167C91.738 29.352 92.152 29.944 92.982 29.944C93.363 29.944 93.679 29.911 93.929 29.845L93.988 31.464C93.568 31.621 93.015 31.7 92.33 31.7C91.488 31.7 90.83 31.443 90.355 30.93C89.882 30.416 89.644 29.554 89.644 28.343V23.506H88.244V21.906H89.644V20.149L91.738 19.517V21.906H94.088V23.508ZM104.691 26.627C104.691 28.102 104.269 29.313 103.427 30.26C102.544 31.235 101.372 31.721 99.911 31.721C98.503 31.721 97.382 31.254 96.546 30.32C95.71 29.386 95.292 28.207 95.292 26.786C95.292 25.299 95.722 24.081 96.585 23.134C97.446 22.186 98.608 21.712 100.069 21.712C101.477 21.712 102.61 22.179 103.465 23.114C104.283 24.021 104.691 25.192 104.691 26.627ZM102.479 26.696C102.479 25.811 102.29 25.052 101.907 24.419C101.46 23.653 100.821 23.271 99.993 23.271C99.136 23.271 98.485 23.654 98.038 24.419C97.655 25.053 97.466 25.824 97.466 26.736C97.466 27.621 97.655 28.38 98.038 29.012C98.499 29.778 99.143 30.16 99.974 30.16C100.788 30.16 101.427 29.77 101.888 28.992C102.281 28.347 102.479 27.58 102.479 26.696ZM111.621 23.783C111.399 23.7429 111.174 23.7232 110.949 23.724C110.199 23.724 109.619 24.007 109.211 24.574C108.856 25.074 108.678 25.706 108.678 26.469V31.504H106.547L106.567 24.93C106.567 23.824 106.54 22.817 106.487 21.909H108.344L108.422 23.745H108.481C108.706 23.114 109.061 22.606 109.547 22.225C109.992 21.8921 110.532 21.7118 111.088 21.711C111.285 21.711 111.463 21.725 111.621 21.75V23.783ZM121.156 26.252C121.161 26.5761 121.135 26.8999 121.078 27.219H114.682C114.707 28.167 115.016 28.892 115.61 29.392C116.149 29.839 116.846 30.063 117.702 30.063C118.649 30.063 119.513 29.912 120.29 29.609L120.624 31.089C119.716 31.485 118.644 31.682 117.407 31.682C115.919 31.682 114.751 31.244 113.901 30.369C113.053 29.494 112.628 28.319 112.628 26.845C112.628 25.398 113.023 24.193 113.814 23.232C114.642 22.206 115.761 21.693 117.169 21.693C118.552 21.693 119.599 22.206 120.31 23.232C120.873 24.047 121.156 25.055 121.156 26.252ZM119.123 25.699C119.137 25.067 118.998 24.521 118.709 24.06C118.34 23.467 117.773 23.171 117.01 23.171C116.313 23.171 115.746 23.46 115.313 24.04C114.958 24.501 114.747 25.054 114.682 25.698H119.123V25.699ZM42.424 7.27298C42.651 7.13698 42.907 7.02298 43.195 6.92898C43.5235 6.82898 43.8657 6.7814 44.209 6.78798C44.836 6.78798 45.33 6.93698 45.692 7.23398C46.054 7.53098 46.235 7.93198 46.235 8.43698C46.235 8.83798 46.114 9.17398 45.872 9.44598C45.6273 9.71933 45.3031 9.90921 44.945 9.98898V10.018C45.152 10.051 45.348 10.107 45.532 10.188C45.717 10.269 45.879 10.377 46.017 10.513C46.1619 10.6523 46.2766 10.8199 46.3542 11.0053C46.4317 11.1907 46.4705 11.39 46.468 11.591C46.468 11.953 46.395 12.257 46.249 12.503C46.107 12.7448 45.9113 12.9508 45.677 13.105C45.4359 13.2628 45.1683 13.3759 44.887 13.439C44.6008 13.5059 44.3079 13.5401 44.014 13.541C43.703 13.541 43.396 13.508 43.092 13.444C42.7955 13.3826 42.5107 13.2746 42.248 13.124L42.51 12.319C42.678 12.403 42.895 12.484 43.16 12.562C43.425 12.64 43.693 12.678 43.965 12.678C44.411 12.678 44.756 12.578 44.998 12.378C45.1167 12.2809 45.2112 12.1578 45.2744 12.0181C45.3375 11.8785 45.3675 11.7261 45.362 11.573C45.37 11.3766 45.3192 11.1823 45.216 11.015C45.1197 10.8708 44.9896 10.7524 44.837 10.67C44.6749 10.5836 44.4995 10.5248 44.318 10.496C44.1307 10.464 43.9411 10.4476 43.751 10.447H43.314V9.64998H43.751C43.951 9.64998 44.137 9.62498 44.309 9.57198C44.48 9.52098 44.629 9.44798 44.755 9.35398C44.881 9.25998 44.98 9.14798 45.051 9.01898C45.1226 8.88458 45.1591 8.73425 45.157 8.58198C45.157 8.29098 45.053 8.06298 44.846 7.89798C44.639 7.73298 44.361 7.64998 44.012 7.64998C43.773 7.64998 43.533 7.68898 43.294 7.76598C43.0751 7.83598 42.861 7.92016 42.653 8.01798L42.424 7.27298ZM50.755 13.433L50.678 12.89H50.649C50.333 13.323 49.874 13.54 49.272 13.54C49.058 13.54 48.865 13.504 48.69 13.433C48.521 13.3658 48.3662 13.267 48.234 13.142C48.1044 13.0188 48.0019 12.87 47.933 12.705C47.8608 12.5297 47.8248 12.3416 47.827 12.152C47.827 11.564 48.066 11.122 48.545 10.828C49.024 10.534 49.702 10.387 50.582 10.387V10.3C50.582 9.67898 50.256 9.36898 49.604 9.36898C49.139 9.36898 48.729 9.48598 48.375 9.71798L48.162 9.02998C48.595 8.75898 49.134 8.62298 49.779 8.62298C51.012 8.62298 51.629 9.27298 51.629 10.573V12.309C51.629 12.794 51.652 13.169 51.697 13.434H50.755V13.433ZM50.61 11.086C50.025 11.086 49.589 11.16 49.303 11.309C49.017 11.458 48.874 11.701 48.874 12.037C48.874 12.283 48.941 12.467 49.076 12.59C49.2167 12.7149 49.4 12.7808 49.588 12.774C49.8497 12.7747 50.1022 12.6777 50.296 12.502C50.3912 12.4158 50.4686 12.3118 50.524 12.196C50.5816 12.0766 50.6111 11.9455 50.61 11.813V11.086ZM56.683 8.71898V9.58198H54.723V13.433H53.676V8.71898H56.683ZM62.677 11.018C62.677 11.393 62.625 11.736 62.522 12.046C62.43 12.3361 62.2833 12.6059 62.09 12.841C61.9065 13.0624 61.6759 13.24 61.415 13.3609C61.1542 13.4819 60.8696 13.543 60.582 13.54C59.961 13.54 59.515 13.317 59.243 12.871H59.223V15.354H58.175V10.271C58.1728 9.75311 58.1601 9.23534 58.137 8.71798H59.058L59.117 9.46498H59.137C59.486 8.90298 60.016 8.62098 60.728 8.62098C61.005 8.62098 61.263 8.67898 61.499 8.79498C61.735 8.91198 61.94 9.07498 62.115 9.28498C62.29 9.49498 62.427 9.74698 62.527 10.042C62.627 10.337 62.677 10.662 62.677 11.018ZM61.611 11.057C61.611 10.824 61.583 10.609 61.528 10.412C61.4802 10.2301 61.398 10.059 61.286 9.90798C61.1822 9.77111 61.0498 9.6585 60.898 9.57798C60.7407 9.49587 60.5654 9.45428 60.388 9.45698C60.24 9.45698 60.094 9.48998 59.951 9.55398C59.8109 9.6164 59.6843 9.70537 59.578 9.81598C59.471 9.92598 59.386 10.059 59.321 10.214C59.256 10.369 59.223 10.534 59.223 10.709V11.495C59.223 11.669 59.25 11.831 59.306 11.98C59.361 12.129 59.438 12.258 59.538 12.368C59.638 12.478 59.758 12.564 59.897 12.625C60.036 12.687 60.189 12.717 60.357 12.717C60.752 12.717 61.059 12.567 61.279 12.266C61.499 11.965 61.611 11.561 61.611 11.057ZM68.305 8.71898L67.111 11.988C66.827 12.764 66.55 13.399 66.282 13.894C66.013 14.389 65.757 14.749 65.511 14.976C65.149 15.299 64.764 15.497 64.356 15.567L64.104 14.685C64.375 14.614 64.634 14.475 64.88 14.268C65.125 14.061 65.322 13.803 65.472 13.492C65.5111 13.4266 65.5373 13.3543 65.549 13.279C65.5396 13.2024 65.52 13.1274 65.491 13.056L63.783 8.71998H64.937L65.83 11.349C65.876 11.472 65.921 11.611 65.966 11.766C66.012 11.921 66.06 12.093 66.112 12.28H66.132C66.1715 12.1501 66.2069 12.0191 66.238 11.887C66.277 11.729 66.329 11.546 66.393 11.339L67.189 8.71998H68.305V8.71898ZM70.119 10.678H70.603C70.958 10.678 71.234 10.614 71.427 10.484C71.62 10.354 71.718 10.196 71.718 10.008C71.7199 9.91574 71.698 9.82457 71.6546 9.74317C71.6112 9.66177 71.5476 9.59285 71.47 9.54298C71.306 9.42698 71.077 9.36798 70.786 9.36798C70.598 9.36798 70.409 9.39898 70.22 9.45998C70.0367 9.51872 69.8596 9.59508 69.691 9.68798L69.42 9.00998C69.6736 8.86827 69.9469 8.76546 70.231 8.70498C70.4972 8.64997 70.7682 8.62216 71.04 8.62198C71.255 8.62198 71.47 8.64298 71.686 8.68498C71.901 8.72698 72.094 8.79798 72.262 8.89798C72.43 8.99798 72.569 9.12898 72.674 9.29098C72.781 9.45298 72.834 9.65298 72.834 9.89298C72.834 10.042 72.805 10.173 72.746 10.286C72.6882 10.3996 72.6095 10.5014 72.514 10.586C72.4177 10.6733 72.3084 10.7452 72.19 10.799C72.0739 10.8529 71.9521 10.8938 71.827 10.921V10.95C71.981 10.97 72.132 11.009 72.278 11.067C72.423 11.125 72.553 11.201 72.671 11.295C72.786 11.389 72.88 11.502 72.952 11.634C73.022 11.767 73.057 11.917 73.057 12.085C73.057 12.363 72.991 12.596 72.854 12.783C72.7185 12.9708 72.5403 13.1237 72.334 13.229C72.1159 13.3418 71.8824 13.422 71.641 13.467C71.1123 13.5701 70.5681 13.5636 70.042 13.448C69.773 13.3921 69.514 13.2957 69.274 13.162L69.547 12.473C69.715 12.564 69.906 12.64 70.123 12.701C70.34 12.762 70.561 12.793 70.787 12.793C71.142 12.793 71.416 12.724 71.607 12.585C71.796 12.446 71.892 12.273 71.892 12.066C71.8965 11.9441 71.8629 11.8239 71.796 11.722C71.7264 11.6243 71.6332 11.5459 71.525 11.494C71.3964 11.432 71.2586 11.3912 71.117 11.373C70.9501 11.3493 70.7816 11.338 70.613 11.339H70.119V10.678ZM75.715 8.71898V10.387C75.715 10.769 75.709 11.112 75.695 11.415C75.681 11.719 75.666 12.039 75.646 12.375L75.666 12.394L76.029 11.671C76.15 11.435 76.271 11.194 76.394 10.948L77.558 8.71698H78.915V13.431H77.925V11.763C77.925 11.414 77.935 11.065 77.95 10.716C77.966 10.366 77.983 10.014 78.003 9.65798H77.954C77.8591 9.91663 77.7489 10.1694 77.624 10.415C77.515 10.628 77.405 10.848 77.296 11.075C77.095 11.463 76.896 11.851 76.698 12.239C76.501 12.627 76.292 13.025 76.073 13.432H74.716V8.71898H75.715ZM84.445 8.71898V9.58198H83.01V13.433H81.98V9.58198H80.554V8.71898H84.445ZM89.789 10.853C89.789 10.943 89.785 11.029 89.779 11.11C89.7739 11.1832 89.7643 11.256 89.75 11.328H86.607C86.621 11.774 86.761 12.119 87.029 12.361C87.297 12.603 87.652 12.725 88.091 12.725C88.55 12.725 88.974 12.651 89.362 12.502L89.526 13.23C89.079 13.424 88.553 13.521 87.944 13.521C87.577 13.521 87.247 13.464 86.956 13.351C86.6781 13.2465 86.4262 13.0827 86.218 12.871C86.0139 12.6569 85.8569 12.4024 85.757 12.124C85.6479 11.8093 85.5945 11.478 85.599 11.145C85.599 10.783 85.652 10.448 85.757 10.141C85.864 9.83398 86.015 9.56698 86.208 9.34098C86.403 9.11398 86.638 8.93698 86.911 8.80698C87.186 8.67798 87.493 8.61298 87.829 8.61298C88.1076 8.60926 88.3838 8.66375 88.64 8.77298C88.882 8.87898 89.089 9.03098 89.259 9.22898C89.431 9.42598 89.562 9.66298 89.652 9.93698C89.744 10.211 89.789 10.517 89.789 10.853ZM88.789 10.582C88.789 10.213 88.701 9.91398 88.523 9.68498C88.345 9.45598 88.088 9.33998 87.752 9.33998C87.6052 9.33834 87.4599 9.36871 87.326 9.42899C87.1922 9.48926 87.0731 9.57798 86.977 9.68898C86.764 9.92198 86.641 10.219 86.608 10.582H88.789ZM94.01 8.75798C94.198 8.72598 94.436 8.69998 94.727 8.67998C95.018 8.65998 95.315 8.65098 95.62 8.65098C95.813 8.65098 96.032 8.66298 96.274 8.68498C96.516 8.70698 96.749 8.75898 96.967 8.83998C97.188 8.92098 97.371 9.04198 97.52 9.20398C97.669 9.36598 97.745 9.58498 97.745 9.86298C97.7468 9.98986 97.7223 10.1157 97.6729 10.2326C97.6234 10.3495 97.5503 10.4549 97.458 10.542C97.3694 10.6269 97.2678 10.6971 97.157 10.75C97.044 10.805 96.927 10.846 96.803 10.871L96.813 10.9C97.155 10.958 97.434 11.081 97.647 11.269C97.86 11.457 97.967 11.715 97.967 12.045C97.967 12.375 97.875 12.637 97.696 12.831C97.514 13.025 97.292 13.171 97.026 13.268C96.7554 13.3663 96.4729 13.4285 96.186 13.453C95.9237 13.477 95.6605 13.49 95.397 13.492C95.137 13.492 94.883 13.486 94.635 13.472C94.385 13.459 94.178 13.446 94.01 13.433V8.75798ZM95.018 10.64H95.551C95.713 10.64 95.867 10.629 96.012 10.606C96.158 10.584 96.285 10.548 96.395 10.5C96.496 10.4581 96.5848 10.3914 96.653 10.306C96.7158 10.2203 96.7482 10.1161 96.745 10.01C96.7502 9.91418 96.7276 9.81894 96.6801 9.7356C96.6326 9.65226 96.5621 9.58436 96.477 9.53998C96.299 9.43998 96.02 9.38998 95.639 9.38998C95.53 9.38998 95.434 9.39298 95.352 9.39998L95.018 9.42898V10.64ZM95.018 12.725C95.147 12.738 95.256 12.747 95.342 12.754C95.5897 12.7712 95.8385 12.7648 96.085 12.735C96.2257 12.7181 96.3632 12.6807 96.493 12.624C96.6083 12.5757 96.7097 12.4994 96.788 12.402C96.8672 12.2949 96.9071 12.1639 96.901 12.031C96.901 11.761 96.78 11.575 96.542 11.472C96.302 11.369 95.98 11.318 95.571 11.318H95.018V12.725Z" fill="white"/>
</svg>