<svg width="135" height="40" viewBox="0 0 135 40" fill="none" xmlns="http://www.w3.org/2000/svg">
<path d="M130 39.5H5C2.47614 39.5 0.5 37.5239 0.5 35V5C0.5 2.47614 2.47614 0.5 5 0.5H130C132.524 0.5 134.5 2.47614 134.5 5V35C134.5 37.4304 132.517 39.5 130 39.5Z" stroke="white"/>
<path d="M41.424 7.27301C41.651 7.13701 41.907 7.02301 42.195 6.92901C42.5235 6.82902 42.8657 6.78143 43.209 6.78801C43.836 6.78801 44.33 6.93701 44.692 7.23401C45.054 7.53101 45.235 7.93201 45.235 8.43701C45.235 8.83801 45.114 9.17401 44.872 9.44601C44.6273 9.71936 44.3031 9.90924 43.945 9.98901V10.018C44.152 10.051 44.348 10.107 44.532 10.188C44.717 10.269 44.879 10.377 45.017 10.513C45.1618 10.6524 45.2766 10.8199 45.3541 11.0053C45.4317 11.1907 45.4705 11.3901 45.468 11.591C45.468 11.953 45.395 12.257 45.249 12.503C45.107 12.7449 44.9113 12.9508 44.677 13.105C44.4358 13.2628 44.1682 13.376 43.887 13.439C43.6008 13.506 43.3079 13.5402 43.014 13.541C42.703 13.541 42.396 13.508 42.092 13.444C41.7955 13.3826 41.5106 13.2746 41.248 13.124L41.51 12.319C41.678 12.403 41.895 12.484 42.16 12.562C42.425 12.64 42.693 12.678 42.965 12.678C43.411 12.678 43.756 12.578 43.998 12.378C44.1166 12.281 44.2112 12.1578 44.2743 12.0182C44.3375 11.8785 44.3675 11.7262 44.362 11.573C44.37 11.3766 44.3191 11.1823 44.216 11.015C44.1197 10.8709 43.9896 10.7524 43.837 10.67C43.6749 10.5836 43.4995 10.5248 43.318 10.496C43.1307 10.464 42.941 10.4476 42.751 10.447H42.314V9.65001H42.751C42.951 9.65001 43.137 9.62501 43.309 9.57201C43.48 9.52101 43.629 9.44801 43.755 9.35401C43.881 9.26001 43.98 9.14801 44.051 9.01901C44.1226 8.88462 44.1591 8.73429 44.157 8.58201C44.157 8.29101 44.053 8.06301 43.846 7.89801C43.639 7.73301 43.361 7.65001 43.012 7.65001C42.773 7.65001 42.533 7.68901 42.294 7.76601C42.0751 7.83601 41.861 7.92019 41.653 8.01801L41.424 7.27301ZM49.755 13.433L49.678 12.89H49.649C49.333 13.323 48.874 13.54 48.272 13.54C48.058 13.54 47.865 13.504 47.69 13.433C47.5209 13.3658 47.3662 13.267 47.234 13.142C47.1044 13.0189 47.0018 12.87 46.933 12.705C46.8608 12.5297 46.8247 12.3416 46.827 12.152C46.827 11.564 47.066 11.122 47.545 10.828C48.024 10.534 48.702 10.387 49.582 10.387V10.3C49.582 9.67901 49.256 9.36901 48.604 9.36901C48.139 9.36901 47.729 9.48601 47.375 9.71801L47.162 9.03001C47.595 8.75901 48.134 8.62301 48.779 8.62301C50.012 8.62301 50.629 9.27301 50.629 10.573V12.309C50.629 12.794 50.652 13.169 50.697 13.434H49.755V13.433ZM49.61 11.086C49.025 11.086 48.589 11.16 48.303 11.309C48.017 11.458 47.874 11.701 47.874 12.037C47.874 12.283 47.941 12.467 48.076 12.59C48.2166 12.7149 48.4 12.7808 48.588 12.774C48.8496 12.7747 49.1021 12.6777 49.296 12.502C49.3912 12.4158 49.4686 12.3119 49.524 12.196C49.5816 12.0766 49.611 11.9456 49.61 11.813V11.086ZM55.683 8.71901V9.58201H53.723V13.433H52.676V8.71901H55.683ZM61.677 11.018C61.677 11.393 61.625 11.736 61.522 12.046C61.4299 12.3361 61.2833 12.6059 61.09 12.841C60.9065 13.0624 60.6759 13.24 60.415 13.361C60.1541 13.4819 59.8695 13.5431 59.582 13.54C58.961 13.54 58.515 13.317 58.243 12.871H58.223V15.354H57.175V10.271C57.1727 9.75315 57.1601 9.23537 57.137 8.71801H58.058L58.117 9.46501H58.137C58.486 8.90301 59.016 8.62101 59.728 8.62101C60.005 8.62101 60.263 8.67901 60.499 8.79501C60.735 8.91201 60.94 9.07501 61.115 9.28501C61.29 9.49501 61.427 9.74701 61.527 10.042C61.627 10.337 61.677 10.662 61.677 11.018ZM60.611 11.057C60.611 10.824 60.583 10.609 60.528 10.412C60.4802 10.2301 60.398 10.0591 60.286 9.90801C60.1822 9.77115 60.0498 9.65854 59.898 9.57801C59.7407 9.4959 59.5654 9.45431 59.388 9.45701C59.24 9.45701 59.094 9.49001 58.951 9.55401C58.8109 9.61643 58.6842 9.7054 58.578 9.81601C58.471 9.92601 58.386 10.059 58.321 10.214C58.256 10.369 58.223 10.534 58.223 10.709V11.495C58.223 11.669 58.25 11.831 58.306 11.98C58.361 12.129 58.438 12.258 58.538 12.368C58.638 12.478 58.758 12.564 58.897 12.625C59.036 12.687 59.189 12.717 59.357 12.717C59.752 12.717 60.059 12.567 60.279 12.266C60.499 11.965 60.611 11.561 60.611 11.057ZM67.305 8.71901L66.111 11.988C65.827 12.764 65.55 13.399 65.282 13.894C65.013 14.389 64.757 14.749 64.511 14.976C64.149 15.299 63.764 15.497 63.356 15.567L63.104 14.685C63.375 14.614 63.634 14.475 63.88 14.268C64.125 14.061 64.322 13.803 64.472 13.492C64.5111 13.4266 64.5372 13.3543 64.549 13.279C64.5395 13.2025 64.52 13.1275 64.491 13.056L62.783 8.72001H63.937L64.83 11.349C64.876 11.472 64.921 11.611 64.966 11.766C65.012 11.921 65.06 12.093 65.112 12.28H65.132C65.1715 12.1502 65.2068 12.0191 65.238 11.887C65.277 11.729 65.329 11.546 65.393 11.339L66.189 8.72001H67.305V8.71901ZM69.119 10.678H69.603C69.958 10.678 70.234 10.614 70.427 10.484C70.62 10.354 70.718 10.196 70.718 10.008C70.7198 9.91578 70.698 9.82461 70.6546 9.74321C70.6112 9.6618 70.5476 9.59288 70.47 9.54301C70.306 9.42701 70.077 9.36801 69.786 9.36801C69.598 9.36801 69.409 9.39901 69.22 9.46001C69.0367 9.51875 68.8596 9.59511 68.691 9.68801L68.42 9.01001C68.6735 8.86831 68.9469 8.76549 69.231 8.70501C69.4972 8.65 69.7682 8.62219 70.04 8.62201C70.255 8.62201 70.47 8.64301 70.686 8.68501C70.901 8.72701 71.094 8.79801 71.262 8.89801C71.43 8.99801 71.569 9.12901 71.674 9.29101C71.781 9.45301 71.834 9.65301 71.834 9.89301C71.834 10.042 71.805 10.173 71.746 10.286C71.6882 10.3997 71.6095 10.5014 71.514 10.586C71.4177 10.6734 71.3084 10.7452 71.19 10.799C71.0739 10.8529 70.9521 10.8938 70.827 10.921V10.95C70.981 10.97 71.132 11.009 71.278 11.067C71.423 11.125 71.553 11.201 71.671 11.295C71.786 11.389 71.88 11.502 71.952 11.634C72.022 11.767 72.057 11.917 72.057 12.085C72.057 12.363 71.991 12.596 71.854 12.783C71.7185 12.9708 71.5403 13.1237 71.334 13.229C71.1159 13.3418 70.8824 13.422 70.641 13.467C70.1123 13.5701 69.5681 13.5636 69.042 13.448C68.773 13.3922 68.514 13.2957 68.274 13.162L68.547 12.473C68.715 12.564 68.906 12.64 69.123 12.701C69.34 12.762 69.561 12.793 69.787 12.793C70.142 12.793 70.416 12.724 70.607 12.585C70.796 12.446 70.892 12.273 70.892 12.066C70.8964 11.9442 70.8629 11.824 70.796 11.722C70.7264 11.6243 70.6331 11.5459 70.525 11.494C70.3964 11.432 70.2586 11.3912 70.117 11.373C69.9501 11.3494 69.7816 11.338 69.613 11.339H69.119V10.678ZM74.715 8.71901V10.387C74.715 10.769 74.709 11.112 74.695 11.415C74.681 11.719 74.666 12.039 74.646 12.375L74.666 12.394L75.029 11.671C75.15 11.435 75.271 11.194 75.394 10.948L76.558 8.71701H77.915V13.431H76.925V11.763C76.925 11.414 76.935 11.065 76.95 10.716C76.966 10.366 76.983 10.014 77.003 9.65801H76.954C76.8591 9.91667 76.7489 10.1694 76.624 10.415C76.515 10.628 76.405 10.848 76.296 11.075C76.095 11.463 75.896 11.851 75.698 12.239C75.501 12.627 75.292 13.025 75.073 13.432H73.716V8.71901H74.715ZM83.445 8.71901V9.58201H82.01V13.433H80.98V9.58201H79.554V8.71901H83.445ZM88.789 10.853C88.789 10.943 88.785 11.029 88.779 11.11C88.7739 11.1832 88.7642 11.256 88.75 11.328H85.607C85.621 11.774 85.761 12.119 86.029 12.361C86.297 12.603 86.652 12.725 87.091 12.725C87.55 12.725 87.974 12.651 88.362 12.502L88.526 13.23C88.079 13.424 87.553 13.521 86.944 13.521C86.577 13.521 86.247 13.464 85.956 13.351C85.6781 13.2465 85.4262 13.0827 85.218 12.871C85.0139 12.6569 84.8569 12.4024 84.757 12.124C84.6479 11.8093 84.5944 11.478 84.599 11.145C84.599 10.783 84.652 10.448 84.757 10.141C84.864 9.83401 85.015 9.56701 85.208 9.34101C85.403 9.11401 85.638 8.93701 85.911 8.80701C86.186 8.67801 86.493 8.61301 86.829 8.61301C87.1075 8.60929 87.3838 8.66379 87.64 8.77301C87.882 8.87901 88.089 9.03101 88.259 9.22901C88.431 9.42601 88.562 9.66301 88.652 9.93701C88.744 10.211 88.789 10.517 88.789 10.853ZM87.789 10.582C87.789 10.213 87.701 9.91401 87.523 9.68501C87.345 9.45601 87.088 9.34001 86.752 9.34001C86.6052 9.33837 86.4599 9.36875 86.326 9.42902C86.1922 9.4893 86.0731 9.57802 85.977 9.68901C85.764 9.92201 85.641 10.219 85.608 10.582H87.789ZM93.01 8.75801C93.198 8.72601 93.436 8.70001 93.727 8.68001C94.018 8.66001 94.315 8.65101 94.62 8.65101C94.813 8.65101 95.032 8.66301 95.274 8.68501C95.516 8.70701 95.749 8.75901 95.967 8.84001C96.188 8.92101 96.371 9.04201 96.52 9.20401C96.669 9.36601 96.745 9.58501 96.745 9.86301C96.7468 9.9899 96.7222 10.1158 96.6728 10.2327C96.6234 10.3495 96.5503 10.4549 96.458 10.542C96.3694 10.6269 96.2677 10.6971 96.157 10.75C96.044 10.805 95.927 10.846 95.803 10.871L95.813 10.9C96.155 10.958 96.434 11.081 96.647 11.269C96.86 11.457 96.967 11.715 96.967 12.045C96.967 12.375 96.875 12.637 96.696 12.831C96.514 13.025 96.292 13.171 96.026 13.268C95.7553 13.3663 95.4729 13.4285 95.186 13.453C94.9237 13.477 94.6604 13.49 94.397 13.492C94.137 13.492 93.883 13.486 93.635 13.472C93.385 13.459 93.178 13.446 93.01 13.433V8.75801ZM94.018 10.64H94.551C94.713 10.64 94.867 10.629 95.012 10.606C95.158 10.584 95.285 10.548 95.395 10.5C95.496 10.4582 95.5848 10.3914 95.653 10.306C95.7158 10.2203 95.7481 10.1162 95.745 10.01C95.7501 9.91422 95.7276 9.81897 95.6801 9.73563C95.6325 9.6523 95.562 9.58439 95.477 9.54001C95.299 9.44001 95.02 9.39001 94.639 9.39001C94.53 9.39001 94.434 9.39301 94.352 9.40001L94.018 9.42901V10.64ZM94.018 12.725C94.147 12.738 94.256 12.747 94.342 12.754C94.5897 12.7712 94.8385 12.7648 95.085 12.735C95.2257 12.7181 95.3632 12.6808 95.493 12.624C95.6083 12.5758 95.7097 12.4994 95.788 12.402C95.8671 12.295 95.907 12.164 95.901 12.031C95.901 11.761 95.78 11.575 95.542 11.472C95.302 11.369 94.98 11.318 94.571 11.318H94.018V12.725ZM68 21.7C65.6 21.7 63.7 23.5 63.7 26C63.7 28.4 65.6 30.3 68 30.3C70.4 30.3 72.3 28.5 72.3 26C72.3 23.4 70.4 21.7 68 21.7ZM68 28.5C66.7 28.5 65.6 27.4 65.6 25.9C65.6 24.4 66.7 23.3 68 23.3C69.3 23.3 70.4 24.3 70.4 25.9C70.4 27.4 69.3 28.5 68 28.5ZM58.7 21.7C56.3 21.7 54.4 23.5 54.4 26C54.4 28.4 56.3 30.3 58.7 30.3C61.1 30.3 63 28.5 63 26C63 23.4 61.1 21.7 58.7 21.7ZM58.7 28.5C57.4 28.5 56.3 27.4 56.3 25.9C56.3 24.4 57.4 23.3 58.7 23.3C60 23.3 61.1 24.3 61.1 25.9C61.1 27.4 60 28.5 58.7 28.5ZM47.6 23V24.8H51.9C51.8 25.8 51.4 26.6 50.9 27.1C50.3 27.7 49.3 28.4 47.6 28.4C44.9 28.4 42.9 26.3 42.9 23.6C42.9 20.9 45 18.8 47.6 18.8C49 18.8 50.1 19.4 50.9 20.1L52.2 18.8C51.1 17.8 49.7 17 47.7 17C44.1 17 41 20 41 23.6C41 27.2 44.1 30.2 47.7 30.2C49.7 30.2 51.1 29.6 52.3 28.3C53.5 27.1 53.9 25.4 53.9 24.1C53.9 23.7 53.9 23.3 53.8 23H47.6ZM93 24.4C92.6 23.4 91.6 21.7 89.4 21.7C87.2 21.7 85.4 23.4 85.4 26C85.4 28.4 87.2 30.3 89.6 30.3C91.5 30.3 92.7 29.1 93.1 28.4L91.7 27.4C91.2 28.1 90.6 28.6 89.6 28.6C88.6 28.6 88 28.2 87.5 27.3L93.2 24.9L93 24.4ZM87.2 25.8C87.2 24.2 88.5 23.3 89.4 23.3C90.1 23.3 90.8 23.7 91 24.2L87.2 25.8ZM82.5 29.9H84.4V17.4H82.5V29.9ZM79.5 22.6C79 22.1 78.2 21.6 77.2 21.6C75.1 21.6 73.1 23.5 73.1 25.9C73.1 28.3 75 30.1 77.2 30.1C78.2 30.1 79 29.6 79.4 29.1H79.5V29.7C79.5 31.3 78.6 32.2 77.2 32.2C76.1 32.2 75.3 31.4 75.1 30.7L73.5 31.4C74 32.5 75.2 33.9 77.3 33.9C79.5 33.9 81.3 32.6 81.3 29.5V21.9H79.5V22.6ZM77.3 28.5C76 28.5 74.9 27.4 74.9 25.9C74.9 24.4 76 23.3 77.3 23.3C78.6 23.3 79.6 24.4 79.6 25.9C79.6 27.4 78.6 28.5 77.3 28.5ZM101.7 17.4H97.2V29.9H99.1V25.2H101.7C103.8 25.2 105.8 23.7 105.8 21.3C105.8 18.9 103.8 17.4 101.7 17.4ZM101.8 23.4H99.1V19.1H101.8C103.2 19.1 104 20.3 104 21.2C103.9 22.3 103.1 23.4 101.8 23.4ZM113.3 21.6C111.9 21.6 110.5 22.2 110 23.5L111.7 24.2C112.1 23.5 112.7 23.3 113.4 23.3C114.4 23.3 115.3 23.9 115.4 24.9V25C115.1 24.8 114.3 24.5 113.5 24.5C111.7 24.5 109.9 25.5 109.9 27.3C109.9 29 111.4 30.1 113 30.1C114.3 30.1 114.9 29.5 115.4 28.9H115.5V29.9H117.3V25.1C117.1 22.9 115.4 21.6 113.3 21.6ZM113.1 28.5C112.5 28.5 111.6 28.2 111.6 27.4C111.6 26.4 112.7 26.1 113.6 26.1C114.4 26.1 114.8 26.3 115.3 26.5C115.1 27.7 114.1 28.5 113.1 28.5ZM123.6 21.9L121.5 27.3H121.4L119.2 21.9H117.2L120.5 29.5L118.6 33.7H120.5L125.6 21.9H123.6ZM106.8 29.9H108.7V17.4H106.8V29.9Z" fill="white"/>
<path d="M10.4 7.5C10.1 7.8 9.89999 8.3 9.89999 8.9V31C9.89999 31.6 10.1 32.1 10.4 32.4L10.5 32.5L22.9 20.1V19.9L10.4 7.5Z" stroke="white"/>
<path d="M27 24.3L22.9 20.2V19.9L27 15.8L27.1 15.9L32 18.7C33.4 19.5 33.4 20.8 32 21.6L27 24.3Z" stroke="white"/>
<path d="M27.1 24.2L22.9 20L10.4 32.5C10.9 33 11.6 33 12.5 32.6L27.1 24.2" stroke="white"/>
<path d="M27.1 15.8L12.5 7.49999C11.6 6.99999 10.9 7.09999 10.4 7.59999L22.9 20L27.1 15.8Z" stroke="white"/>
<path opacity="0.12" d="M10.4 32.3C10.1 32 10 31.5 10 30.9V31C10 31.6 10.2 32.1 10.5 32.4V32.3H10.4Z" fill="black"/>
<path opacity="0.25" d="M12.5 7.6L32 18.7C32.6 19.1 33 19.5 33 20C33 19.5 32.7 19 32 18.6L12.5 7.5C11.1 6.7 10 7.4 10 9V9.1C10 7.5 11.1 6.8 12.5 7.6Z" fill="white"/>
</svg>