<svg width="22" height="22" viewBox="0 0 22 22" fill="none" xmlns="http://www.w3.org/2000/svg">
<path d="M19.1157 4.71763L14.5324 0.134277C14.4464 0.0483398 14.3301 0 14.2083 0H4.5833C3.57221 0 2.75 0.822207 2.75 1.83335V20.1667C2.75 21.1778 3.57221 22 4.58335 22H17.4167C18.4278 22 19.25 21.1778 19.25 20.1667V5.04165C19.25 4.91992 19.2017 4.80356 19.1157 4.71763ZM14.6667 1.56479L17.6852 4.58335H15.5833C15.078 4.58335 14.6667 4.17201 14.6667 3.6667V1.56479ZM18.3333 20.1667C18.3333 20.672 17.922 21.0833 17.4167 21.0833H4.58335C4.07804 21.0833 3.6667 20.672 3.6667 20.1667V1.83335C3.6667 1.32804 4.07804 0.916695 4.58335 0.916695H13.75V3.6667C13.75 4.67779 14.5722 5.5 15.5833 5.5H18.3333V20.1667Z" fill="white"/>
<path d="M13.3369 13.455C12.9125 13.1211 12.5093 12.7778 12.2407 12.5093C11.8916 12.1602 11.5805 11.8218 11.3102 11.4995C11.7318 10.1966 11.9167 9.52476 11.9167 9.16666C11.9167 7.64531 11.367 7.33331 10.5417 7.33331C9.91461 7.33331 9.1667 7.65914 9.1667 9.21053C9.1667 9.89446 9.54134 10.7247 10.2839 11.6897C10.1022 12.2443 9.88866 12.8839 9.64876 13.605C9.53326 13.951 9.40797 14.2714 9.27545 14.5677C9.1676 14.6157 9.06284 14.6644 8.96169 14.715C8.59736 14.8972 8.25138 15.061 7.93044 15.2132C6.4668 15.906 5.5 16.3644 5.5 17.2694C5.5 17.9265 6.21393 18.3333 6.875 18.3333C7.7272 18.3333 9.01403 17.1951 9.95397 15.2776C10.9297 14.8927 12.1427 14.6075 13.1001 14.429C13.8673 15.0189 14.7146 15.5833 15.125 15.5833C16.2614 15.5833 16.5 14.9262 16.5 14.3752C16.5 13.2916 15.2619 13.2916 14.6667 13.2916C14.4818 13.2917 13.9859 13.3463 13.3369 13.455ZM6.875 17.4167C6.61315 17.4167 6.4359 17.2931 6.41665 17.2694C6.41665 16.9444 7.38568 16.4852 8.32296 16.0412C8.38247 16.013 8.44293 15.9848 8.50425 15.9557C7.81584 16.9539 7.13505 17.4167 6.875 17.4167ZM10.0833 9.21053C10.0833 8.25001 10.3815 8.25001 10.5417 8.25001C10.8658 8.25001 11 8.25001 11 9.16666C11 9.36002 10.8711 9.84342 10.6352 10.5981C10.2753 10.044 10.0833 9.56906 10.0833 9.21053ZM10.4347 14.1367C10.4634 14.0571 10.4911 13.9765 10.518 13.895C10.688 13.3848 10.8411 12.9264 10.9777 12.5138C11.1679 12.7232 11.3729 12.9376 11.5927 13.1574C11.6786 13.2433 11.8916 13.4367 12.1755 13.6788C11.6105 13.8019 11.0094 13.9545 10.4347 14.1367ZM15.5833 14.3753C15.5833 14.5812 15.5833 14.6667 15.1581 14.6694C15.0333 14.6425 14.7446 14.4724 14.3883 14.2298C14.5176 14.2155 14.6129 14.2084 14.6667 14.2084C15.3439 14.2084 15.5359 14.2746 15.5833 14.3753Z" fill="white"/>
</svg>