<svg width="160" height="39" viewBox="0 0 160 39" fill="none" xmlns="http://www.w3.org/2000/svg">
<path d="M11.8856 37.4739C7.44747 35.5984 3.86154 32.1335 1.82401 27.7518C-0.213522 23.37 -0.557267 18.3842 0.85951 13.7622C2.27629 9.14028 5.35249 5.21198 9.49089 2.74001C13.6293 0.268039 18.5346 -0.571217 23.2545 0.38518C27.9743 1.34158 32.1719 4.02539 35.0324 7.91555C37.8928 11.8057 39.212 16.6247 38.7338 21.4368C38.2555 26.2489 36.014 30.7109 32.4444 33.9565C28.8748 37.202 24.2318 38.9995 19.4169 39C16.8299 39.0038 14.2687 38.4848 11.8856 37.4739ZM3.01553 23.1558V23.2593L2.98092 23.3296V23.5738C2.98003 23.6693 2.97383 23.7647 2.96235 23.8595C2.95243 23.938 2.9468 24.017 2.94547 24.0961V24.2699C2.94547 24.3046 2.97164 24.3318 3.00202 24.3614C3.03919 24.3933 3.06815 24.4338 3.08644 24.4793C3.08422 24.5036 3.07998 24.5277 3.07377 24.5514C3.0619 24.5963 3.05455 24.6423 3.05183 24.6887C3.0609 24.6884 3.06989 24.6906 3.07779 24.695C3.08569 24.6995 3.09219 24.7061 3.09657 24.7141C3.10635 24.7381 3.11052 24.7641 3.10877 24.7899C3.10701 24.8158 3.09937 24.8409 3.08644 24.8634H3.12105V24.9676C3.15819 24.9897 3.19533 25.016 3.23163 25.0405C3.31048 25.1099 3.40689 25.1559 3.51019 25.1737C3.54477 25.1737 3.57836 25.162 3.60557 25.1406L3.71024 25.0372L3.77946 25.0711L3.81323 24.8277C3.87627 24.8774 3.95152 24.9091 4.03101 24.9193C4.04343 24.92 4.05585 24.9179 4.06738 24.9132C4.07891 24.9085 4.08926 24.9014 4.0977 24.8922C4.11328 24.8672 4.12376 24.8393 4.12854 24.8102C4.13333 24.7811 4.13231 24.7513 4.12555 24.7226C4.13172 24.7261 4.13872 24.7279 4.14581 24.7277C4.1762 24.7277 4.20068 24.6938 4.22601 24.659C4.24413 24.6284 4.26895 24.6023 4.2986 24.5827L4.71475 24.4784L4.95617 24.4437H5.02624C5.15985 24.4155 5.29523 24.3965 5.43142 24.3869C5.7747 24.3874 6.10821 24.2721 6.37852 24.0596H6.96941C7.23278 24.163 7.58731 24.2877 7.93087 24.4089C8.24153 24.506 8.54599 24.6221 8.84253 24.7565L8.91174 24.6522C8.73475 24.508 8.52364 24.4122 8.29891 24.3742C8.13729 24.3399 7.98186 24.281 7.83802 24.1995L8.11489 24.3038C8.08112 24.269 8.04651 24.2258 8.01275 24.1851C7.97962 24.1413 7.94411 24.0994 7.90639 24.0596H8.59013C8.35051 24.0613 8.11097 24.0497 7.87263 24.0249L7.80003 23.9604L7.59153 23.9257C7.53498 23.9045 7.47673 23.8841 7.42271 23.8646C7.20069 23.812 6.9967 23.7008 6.83182 23.5424L6.7626 23.439C6.84969 23.4831 6.93424 23.532 7.01584 23.5857C7.09397 23.6412 7.17913 23.686 7.26908 23.7188C7.37351 23.773 7.48186 23.8192 7.59322 23.857L7.5392 23.7849H7.5527H7.55777L7.524 23.7502L7.62783 23.7849H7.66497C7.59393 23.7147 7.53055 23.6371 7.47589 23.5535C7.34505 23.3746 7.19817 23.1736 7.08674 23.1736C7.0361 23.1736 7.00233 23.2135 6.97026 23.2966C6.98123 23.3076 6.98545 23.3152 6.98461 23.322C6.98376 23.3288 6.97616 23.3356 6.96519 23.3432C6.95515 23.3505 6.94557 23.3585 6.93649 23.3669C6.75838 23.2593 6.5406 23.1202 6.2882 22.9557L6.26119 22.9379L6.27807 22.949V22.9837L6.24346 23.0185L6.17425 23.0872C6.15576 23.1015 6.1324 23.1079 6.10925 23.105C6.08899 23.105 6.07042 23.105 6.07042 23.1228V23.1931C6.05248 23.2004 6.03321 23.2039 6.01386 23.2033H5.95477C5.93481 23.2007 5.91456 23.2053 5.89769 23.2163C5.88082 23.2274 5.86843 23.2441 5.86276 23.2635C5.85517 23.2635 5.83238 23.2296 5.79523 23.1787L5.74965 23.1126C5.69647 23.0354 5.64498 22.9634 5.62472 22.9634C5.61966 22.9634 5.61628 22.9693 5.61628 22.9812C5.62731 23.0281 5.63102 23.0764 5.62725 23.1245C5.62134 23.1245 5.61459 23.1177 5.60699 23.1084C5.59602 23.0928 5.58195 23.0797 5.56567 23.07C5.54939 23.0602 5.53127 23.0539 5.51245 23.0515L5.47784 23.155C5.46228 23.1425 5.44358 23.1346 5.42382 23.1321C5.4044 23.1321 5.39427 23.149 5.38077 23.1728C5.3626 23.2068 5.33654 23.2359 5.3048 23.2576C5.29426 23.2696 5.28126 23.2791 5.26668 23.2856C5.25211 23.292 5.23631 23.2952 5.22038 23.2949C5.20858 23.2956 5.19674 23.2956 5.18493 23.2949C5.17256 23.2942 5.16016 23.2942 5.14779 23.2949C5.11234 23.2949 5.07351 23.3084 5.02539 23.4059L4.81689 23.5797C4.77323 23.5827 4.73067 23.5948 4.69196 23.6154C4.65755 23.6333 4.61999 23.6442 4.58138 23.6476C4.52905 23.6476 4.48262 23.6145 4.43619 23.5441C4.41727 23.5767 4.38997 23.6036 4.35715 23.622C4.32432 23.6403 4.28719 23.6494 4.24964 23.6484C4.2054 23.6445 4.16177 23.6354 4.11965 23.6213C4.0791 23.6103 4.0375 23.6038 3.99556 23.6018C3.98132 23.6015 3.96711 23.6032 3.95335 23.6069C3.92665 23.6184 3.898 23.6248 3.86894 23.6255C3.78031 23.6255 3.72122 23.5602 3.64609 23.4763C3.62246 23.4509 3.59882 23.4246 3.57265 23.3983L3.46629 23.3669C3.46478 23.3653 3.46295 23.364 3.46091 23.3632C3.45888 23.3623 3.45669 23.3618 3.45448 23.3619C3.44097 23.3619 3.42746 23.3814 3.41396 23.4017C3.40045 23.4221 3.38694 23.4432 3.37344 23.4432C3.36934 23.4428 3.36549 23.441 3.36247 23.4382V23.3669L3.3287 23.3322V23.1211L3.15481 23.0176L3.01553 23.1558ZM21.2883 25.0711H21.3567L21.3221 25.1058C21.3515 25.0976 21.3798 25.0859 21.4065 25.0711H21.4242H21.4191H21.4107C21.4276 25.0592 21.4369 25.0473 21.4369 25.0355C21.4369 25.0303 21.4357 25.0252 21.4335 25.0205C21.4313 25.0158 21.4282 25.0117 21.4242 25.0083C21.5459 24.9239 21.6885 24.8749 21.8361 24.8667C21.9694 24.8531 22.0996 24.8182 22.2219 24.7633L22.2565 24.8337L22.3249 24.7989C22.3595 24.8515 22.4279 24.8515 22.4937 24.8515C22.5596 24.8515 22.6195 24.8515 22.6372 24.9032C22.5714 24.9591 22.4901 24.9934 22.4042 25.0015C22.3929 25.0022 22.3815 24.9999 22.3713 24.9948C22.3676 24.9925 22.3645 24.9892 22.3624 24.9854C22.3603 24.9815 22.3593 24.9771 22.3595 24.9727C22.3249 24.9965 22.308 25.0143 22.3114 25.0261C22.3148 25.038 22.3359 25.0439 22.3755 25.0439C22.5225 25.0331 22.6683 25.0093 22.8111 24.9727C22.7562 24.9634 22.7267 24.9524 22.7267 24.938C22.7267 24.9235 22.7984 24.882 22.8575 24.8583C22.8795 24.8489 22.8997 24.8413 22.9132 24.8345L22.8786 24.904C22.9768 24.9003 23.07 24.8601 23.1403 24.7913C23.1827 24.7469 23.2391 24.7187 23.2999 24.7116C23.3484 24.715 23.3946 24.7334 23.4324 24.7642L23.467 24.6599L23.7093 24.6946C23.6915 24.5904 23.7717 24.5632 23.8485 24.5386C23.9254 24.514 24.0039 24.4861 23.9878 24.3818C24.0229 24.366 24.0602 24.356 24.0984 24.3521C24.1108 24.3521 24.1184 24.3552 24.1212 24.3614C24.1254 24.3691 24.1212 24.3826 24.1094 24.403C24.0976 24.4233 24.0984 24.4191 24.0942 24.4267C24.09 24.4344 24.0765 24.4513 24.0781 24.4539C24.082 24.4548 24.0861 24.4548 24.09 24.4539C24.2376 24.4306 24.3776 24.3725 24.4985 24.2843C24.5739 24.2281 24.6601 24.1885 24.7518 24.1681C24.764 24.1676 24.776 24.1709 24.7864 24.1775L24.7518 24.2122L24.8218 24.247L24.7872 24.2122L24.7948 24.2071C24.8965 24.131 25.0108 24.0736 25.1325 24.0376H25.5486C25.8013 24.2395 26.1012 24.3731 26.4197 24.4259C26.5042 24.4471 26.5835 24.4683 26.6578 24.4903L26.6232 24.5251H26.8654C26.8524 24.5388 26.8425 24.5553 26.8365 24.5733C26.8305 24.5913 26.8286 24.6105 26.8308 24.6294C27.0785 24.7003 27.3334 24.7429 27.5905 24.7565C27.7078 24.7634 27.8244 24.7335 27.924 24.6709C27.9198 24.6853 27.9349 24.7031 27.9501 24.7218C27.9653 24.7404 27.9873 24.7659 27.9797 24.7854C27.9721 24.8049 27.9392 24.8193 27.8784 24.8277C27.9881 24.8167 28.1071 24.8159 28.1873 24.8159H28.346H28.5225C28.7701 24.8211 29.0176 24.8006 29.2611 24.7548L29.3311 24.7209L29.3691 24.7133C29.5303 24.6974 29.6843 24.6389 29.8157 24.5437C29.8418 24.5741 29.8737 24.5989 29.9095 24.6168C29.9453 24.6347 29.9843 24.6453 30.0242 24.648C30.0226 24.6447 30.0219 24.6411 30.0219 24.6374C30.0219 24.6337 30.0226 24.6301 30.0242 24.6268C30.0427 24.5954 30.1314 24.5793 30.2445 24.559C30.42 24.5268 30.6378 24.4861 30.7163 24.3691C30.7332 24.3869 30.7163 24.4038 30.7037 24.4174C30.691 24.431 30.691 24.4301 30.6919 24.4344C30.6927 24.4386 30.7011 24.4394 30.7163 24.4394C30.905 24.3587 31.087 24.2631 31.2608 24.1537C31.3992 24.0689 31.5427 23.9892 31.6829 23.9163L33.7982 23.8816C33.984 23.9795 34.1751 24.067 34.3706 24.1435C34.5665 24.2194 34.7579 24.3066 34.9437 24.4047C34.9489 24.4047 34.9539 24.4028 34.9578 24.3994C34.9617 24.396 34.9642 24.3912 34.9648 24.386C34.9658 24.3676 34.9609 24.3494 34.9507 24.3341C34.9405 24.3188 34.9256 24.3073 34.9083 24.3012C34.9905 24.3322 35.078 24.3464 35.1657 24.3428H35.2822H35.3919C35.5121 24.337 35.6318 24.36 35.7414 24.4098L35.6714 24.4445C35.7516 24.4786 35.8375 24.4976 35.9246 24.5005C36.0217 24.4958 36.116 24.4666 36.1989 24.4157C36.3329 24.3422 36.4791 24.2937 36.6303 24.2724C36.5901 24.2752 36.5503 24.2815 36.5113 24.2911C36.4506 24.3054 36.3887 24.3142 36.3264 24.3174C36.269 24.3174 36.2369 24.3021 36.2259 24.2707C36.2443 24.251 36.2692 24.2386 36.296 24.236C36.3367 24.2336 36.3771 24.2276 36.4167 24.2182C36.4563 24.2083 36.4967 24.2024 36.5374 24.2004C36.5563 24.198 36.5755 24.1999 36.5936 24.206C36.6117 24.212 36.6283 24.2219 36.6421 24.2351V24.2004C36.812 24.168 36.9797 24.1253 37.1444 24.0723L37.3005 24.0265L37.3469 24.0147C37.4677 23.9982 37.5831 23.9545 37.6846 23.8867L37.9615 23.7129C37.9343 23.7268 37.9061 23.7384 37.8771 23.7476C37.8481 23.7571 37.8199 23.7687 37.7926 23.7824L35.0188 23.8171C34.9344 23.7993 34.8433 23.773 34.758 23.7468C34.6728 23.7205 34.5892 23.6959 34.5048 23.6781H34.5444C34.5757 23.6781 34.6052 23.6781 34.6289 23.6781C34.6525 23.6781 34.6685 23.6781 34.6736 23.6705C34.6223 23.6523 34.5685 23.6423 34.5141 23.6408C34.4931 23.6408 34.4722 23.6428 34.4516 23.6467L34.2895 23.5687C34.1717 23.5161 34.0567 23.4572 33.9451 23.3924H34.0143C33.9493 23.3703 33.8843 23.344 33.8826 23.3178C33.8826 23.3067 33.8911 23.2974 33.9105 23.2872C33.873 23.2725 33.8334 23.2636 33.7932 23.261C33.7614 23.2625 33.7305 23.2715 33.7029 23.2872C33.6782 23.2678 33.6493 23.2547 33.6184 23.2491C33.5894 23.2415 33.5612 23.2313 33.534 23.2186C33.534 23.2186 33.5298 23.2186 33.5222 23.2143C33.4868 23.205 33.3905 23.1813 33.3736 23.1372C33.3711 23.1299 33.3705 23.1221 33.3718 23.1146C33.3732 23.107 33.3764 23.0999 33.3812 23.0939C33.3613 23.1108 33.3356 23.1194 33.3095 23.1177C33.2554 23.1134 33.2021 23.1023 33.1508 23.0846C33.084 23.0619 33.0144 23.0485 32.944 23.0448C32.9402 23.038 32.9382 23.0304 32.9382 23.0227C32.9382 23.015 32.9402 23.0074 32.944 23.0007C32.9626 22.9676 33.0411 22.9642 33.1128 22.9608C33.166 22.9608 33.2133 22.9557 33.2175 22.9396C33.2217 22.9235 33.2116 22.9201 33.1913 22.9049C33.1656 22.9016 33.1396 22.8999 33.1137 22.8998C32.8595 22.9301 32.6149 23.0148 32.3961 23.1482C32.7713 22.4348 33.2017 21.7522 33.6834 21.1066C33.9818 20.7004 34.2574 20.2778 34.509 19.8408C34.5076 19.7709 34.4942 19.7018 34.4693 19.6365C34.4602 19.6054 34.4412 19.5781 34.4151 19.5589C34.389 19.5398 34.3573 19.5298 34.325 19.5305C34.0118 19.6009 33.6277 20.3063 33.5281 20.5759C32.8305 21.3262 32.3519 22.2548 32.1446 23.2601H32.1395C32.0872 23.2914 32.0302 23.314 31.9707 23.3271C31.9707 23.2856 32.0062 23.2567 32.0349 23.2338C32.0636 23.2109 32.0737 23.2025 32.0737 23.188C32.0358 23.2243 31.9961 23.2586 31.9547 23.2906C31.9116 23.3239 31.8705 23.3596 31.8314 23.3975C31.6542 23.4687 31.509 23.5416 31.3807 23.6069L31.6575 23.2923C31.6284 23.3157 31.5918 23.3277 31.5546 23.3262L31.7234 23.1185C31.5503 23.1533 31.5503 23.2576 31.5503 23.3262C31.5275 23.3262 31.5048 23.3262 31.4811 23.3262L31.5503 23.1872C31.3587 23.2508 31.3503 23.339 31.3401 23.4416C31.3395 23.5134 31.3161 23.5831 31.2735 23.6408L31.0304 23.606C30.8367 23.6653 30.6506 23.747 30.4758 23.8494H30.0596C30.1544 23.7257 30.2895 23.6396 30.4412 23.606C30.4473 23.6094 30.4526 23.6143 30.4564 23.6202C30.4602 23.6261 30.4625 23.6329 30.4631 23.6399C30.4631 23.6832 30.3838 23.7366 30.3424 23.7654C30.3325 23.7706 30.3234 23.7772 30.3154 23.7849C30.3229 23.7848 30.3303 23.7834 30.3373 23.7807C30.3635 23.7739 30.3947 23.768 30.431 23.7603C30.5863 23.7281 30.8008 23.6849 30.8531 23.5721L30.4715 23.7459C30.4555 23.7061 30.453 23.6789 30.4639 23.6611C30.4749 23.6433 30.5078 23.634 30.5424 23.6289C30.5771 23.6238 30.6269 23.6162 30.6446 23.5721C30.6223 23.5609 30.5978 23.555 30.5728 23.5552C30.5061 23.5612 30.4413 23.5805 30.3821 23.612C30.313 23.6478 30.2375 23.6694 30.1601 23.6755L30.1947 23.6416C30.0588 23.6925 29.9971 23.7196 29.9414 23.7451L29.857 23.7824C29.868 23.7747 29.9237 23.7434 29.9237 23.7112L29.7507 23.7459C29.7355 23.7612 29.7296 23.7722 29.7321 23.7798C29.7346 23.7875 29.7456 23.79 29.7642 23.79C29.7831 23.7894 29.802 23.7877 29.8207 23.7849H29.8536C29.8123 23.8036 29.7591 23.8248 29.6848 23.8544L28.5081 23.8756L28.5343 23.8502H28.525C28.4896 23.8486 28.4546 23.8578 28.4245 23.8765L28.0869 23.8833C28.0797 23.8763 28.0721 23.8698 28.0641 23.8638C28.0413 23.846 28.0278 23.8358 28.0464 23.7917H28.0329H27.9814C27.9065 23.7925 27.8318 23.7982 27.7577 23.8087V23.8027C27.7577 23.7959 27.7535 23.7858 27.7408 23.7714L27.7729 23.7773L27.8767 23.7425H27.7079L27.6631 23.7018C27.6516 23.6926 27.6406 23.6827 27.6302 23.6722C27.5813 23.6722 27.5585 23.6772 27.5534 23.6883C27.5483 23.6993 27.5644 23.7162 27.5821 23.7357L27.5889 23.7425H27.5602L27.5948 23.7476C27.6138 23.7642 27.6263 23.7871 27.6302 23.812C27.6116 23.8066 27.5922 23.804 27.5728 23.8044C27.5446 23.8049 27.5164 23.8071 27.4884 23.8112C27.4604 23.8146 27.4322 23.8166 27.404 23.8171C27.3331 23.8171 27.2959 23.7942 27.2833 23.7425C27.2647 23.7239 27.2571 23.7095 27.2613 23.7001C27.2656 23.6908 27.3137 23.6789 27.366 23.6755C27.422 23.68 27.478 23.667 27.5264 23.6382H27.0064L26.9769 23.6332L27.0064 23.6043H26.9954C26.9391 23.6082 26.8829 23.5958 26.8334 23.5687C26.8334 23.5416 26.8486 23.528 26.8781 23.528C26.9231 23.533 26.9667 23.5468 27.0064 23.5687C26.9231 23.5036 26.8198 23.4697 26.7143 23.4729C26.5734 23.4602 26.451 23.4483 26.451 23.2889C26.4031 23.2862 26.3561 23.2744 26.3125 23.2542L26.3471 23.2203L26.2433 23.1855C25.7537 23.0032 25.6921 22.9481 25.6887 22.9227C25.6887 22.9108 25.6955 22.904 25.7048 22.8972C25.7141 22.8905 25.7191 22.8862 25.7183 22.8794C25.7174 22.8727 25.7124 22.8676 25.6997 22.8591C25.6852 22.8512 25.6703 22.8441 25.655 22.8379C25.6277 22.8468 25.5992 22.8514 25.5706 22.8515C25.5368 22.8515 25.5115 22.8421 25.5056 22.8269C25.4996 22.8116 25.5056 22.8108 25.5123 22.8023L25.2709 23.0117C25.2319 23.1014 25.1688 23.1783 25.0886 23.2338C24.9712 23.339 24.8488 23.4475 24.8885 23.573C24.8646 23.5816 24.8396 23.5865 24.8142 23.5874C24.7963 23.5885 24.7786 23.5831 24.7644 23.5721C24.7597 23.5677 24.7559 23.5623 24.7534 23.5563C24.751 23.5503 24.7498 23.5438 24.7501 23.5374C24.732 23.5444 24.7129 23.5484 24.6935 23.5492C24.6538 23.5492 24.6445 23.5246 24.6353 23.4992C24.626 23.4738 24.6167 23.4449 24.5728 23.4449C24.5132 23.4526 24.4558 23.4722 24.404 23.5026C24.404 23.4814 24.4166 23.4729 24.436 23.4611C24.4497 23.4532 24.4625 23.4438 24.474 23.4331H24.469C24.3483 23.4331 24.3356 23.4806 24.3356 23.5009L24.301 23.4314C24.3043 23.4369 24.3061 23.4432 24.3061 23.4496C24.3061 23.456 24.3043 23.4624 24.301 23.4678C24.274 23.5128 24.1516 23.5357 24.0933 23.5357L24.1634 23.3619C24.0867 23.435 23.99 23.4835 23.8857 23.5009L23.9557 23.3975C23.8418 23.4466 23.8426 23.4941 23.8426 23.5331C23.8442 23.5413 23.8439 23.5497 23.8419 23.5577C23.8398 23.5658 23.8361 23.5733 23.8308 23.5797C23.8122 23.5984 23.7658 23.606 23.678 23.606H23.9895C23.7886 23.695 23.7743 23.7858 23.7624 23.8663C23.7606 23.9119 23.743 23.9553 23.7126 23.9892L23.6434 24.024H22.8837C22.9264 23.984 22.9616 23.9366 22.9875 23.8841C23.034 23.8551 23.0866 23.8376 23.1412 23.8332C23.1658 23.8346 23.1897 23.8425 23.2105 23.856C23.2312 23.8696 23.248 23.8883 23.2593 23.9104C23.2855 23.9477 23.3117 23.9833 23.3632 23.9833C23.4418 23.9703 23.5149 23.9343 23.5734 23.8799C23.5596 23.859 23.5407 23.842 23.5186 23.8306C23.4964 23.8191 23.4716 23.8136 23.4467 23.8146C23.3799 23.8182 23.3155 23.8408 23.261 23.8799C23.261 23.8273 23.3395 23.7552 23.4087 23.6925L23.4695 23.6357C23.2912 23.6946 23.1043 23.7233 22.9166 23.7205C22.835 23.7212 22.7534 23.7277 22.6727 23.74H22.6381C22.5562 23.8199 22.4508 23.8711 22.3376 23.8858C22.3221 23.886 22.3067 23.8837 22.292 23.879C22.292 23.8977 22.2616 23.9172 22.2228 23.9409C22.1852 23.9631 22.1501 23.9893 22.1181 24.0189H21.5272V23.9842C21.5374 23.9936 21.5494 24.001 21.5624 24.0058C21.5754 24.0106 21.5893 24.0127 21.6032 24.0121C21.7682 23.9705 21.9206 23.889 22.0472 23.7747L21.6665 23.74C21.6825 23.7485 21.6893 23.7578 21.6893 23.7688C21.6893 23.8036 21.6234 23.8485 21.5618 23.879L21.528 23.7756C21.5217 23.7995 21.5068 23.8201 21.4863 23.8337C21.4657 23.8473 21.441 23.8529 21.4166 23.8494C21.3365 23.8424 21.2576 23.825 21.1819 23.7976L21.1634 23.7925C21.0723 23.76 20.9771 23.7406 20.8806 23.7349C20.8462 23.7324 20.8116 23.7378 20.7796 23.7507C20.7475 23.7637 20.7189 23.7838 20.6957 23.8095C20.7283 23.8112 20.7605 23.8177 20.7911 23.829C20.8182 23.839 20.8467 23.845 20.8755 23.8468C20.8971 23.8461 20.9179 23.8388 20.9352 23.8259C20.9526 23.8131 20.9656 23.7952 20.9726 23.7747C21.0157 23.7925 21.0401 23.812 21.0469 23.8366C21.0536 23.8612 21.0325 23.9087 21.0081 23.9443C20.9899 23.9653 20.9777 23.9908 20.9726 24.0181H20.5564C20.425 23.9755 20.2969 23.923 20.1732 23.8612C20.0505 23.8 19.9236 23.7479 19.7934 23.7052C19.8444 23.7078 19.8943 23.7217 19.9394 23.7459C19.9694 23.7623 20.0024 23.7724 20.0365 23.7756L20.0702 23.7408C20.071 23.74 20.0714 23.739 20.0714 23.7379C20.0714 23.7368 20.071 23.7357 20.0702 23.7349C19.893 23.5707 19.6689 23.4666 19.4295 23.4373C19.3877 23.4362 19.3462 23.4455 19.3088 23.4644C19.2523 23.4644 19.1847 23.4644 19.0995 23.4644C19.0808 23.4745 19.063 23.4861 19.0463 23.4992C19.0181 23.5255 18.9818 23.5414 18.9433 23.5441C18.9259 23.5446 18.9084 23.542 18.8918 23.5365C18.8665 23.5484 18.8547 23.5569 18.8555 23.5602C18.8564 23.5636 18.8555 23.5602 18.8657 23.5602C18.9097 23.5559 18.9534 23.5488 18.9965 23.539L19.0759 23.5246C19.1037 23.5187 19.1333 23.5136 19.1603 23.5094C19.0919 23.6442 19.0674 23.6476 19.0311 23.6518C18.9948 23.656 18.9526 23.6611 18.8538 23.7781H18.8918L18.9264 23.8129L18.8918 23.8477C18.8615 23.8654 18.8279 23.8769 18.7931 23.8816C18.7686 23.8816 18.7618 23.8672 18.7534 23.8502V23.8443C18.7489 23.8321 18.7404 23.8219 18.7294 23.8153C18.7183 23.8087 18.7054 23.806 18.6926 23.8078C18.6787 23.8082 18.6649 23.8099 18.6513 23.8129C18.5955 23.8858 18.5542 23.9197 18.5154 23.9197C18.4918 23.9176 18.4691 23.9094 18.4495 23.896H18.4428C18.4158 23.88 18.3854 23.8709 18.3541 23.8697C18.2842 23.8769 18.2185 23.9067 18.1667 23.9545V23.8841C18.0724 23.9279 17.9692 23.9488 17.8654 23.9452C17.7135 23.9398 17.5624 23.9211 17.4138 23.8892C17.3251 23.8731 17.2407 23.8578 17.1605 23.8494C17.1852 23.8617 17.2123 23.8683 17.2399 23.8689C17.2973 23.8756 17.369 23.885 17.396 23.9248C17.402 23.9343 17.4058 23.945 17.4071 23.9562C17.4084 23.9673 17.4072 23.9786 17.4036 23.9892L16.9875 24.024C16.968 24.0111 16.9462 24.0022 16.9233 23.9977C16.8896 23.9875 16.8541 23.9782 16.8516 23.9604C16.8491 23.9426 16.8609 23.9358 16.8845 23.9197L17.0238 23.9545L16.9503 23.8867C16.8423 23.8985 16.7815 23.9206 16.7748 23.9519C16.768 23.9833 16.8128 24.0367 16.8668 24.085C16.8837 24.1003 16.9005 24.1156 16.9157 24.1308H16.6389C16.6601 24.1146 16.6745 24.091 16.6794 24.0647C16.6759 24.036 16.6614 24.0098 16.6389 23.9918C16.5689 23.9752 16.4971 23.9681 16.4253 23.9706C16.2605 23.9636 16.0962 23.9943 15.945 24.0605C15.8241 23.9109 15.6507 23.8135 15.4605 23.7883C15.3001 23.7442 15.1735 23.7086 15.1819 23.6187C15.1753 23.6358 15.1637 23.6503 15.1486 23.6605C15.1335 23.6707 15.1157 23.6759 15.0975 23.6755C15.0672 23.6741 15.038 23.6641 15.0131 23.6467L15.0831 23.612C15.0433 23.5868 14.9976 23.5728 14.9506 23.5713C14.8984 23.5739 14.8479 23.591 14.8046 23.6204H14.7987C14.7622 23.646 14.7197 23.6615 14.6754 23.6654C14.6478 23.6649 14.6209 23.6567 14.5978 23.6416L14.7008 23.5721C14.6011 23.541 14.497 23.5264 14.3926 23.5289C14.3412 23.5289 14.2905 23.5289 14.2424 23.5331C14.1943 23.5374 14.1529 23.5331 14.1107 23.5331C14.1386 23.4221 14.1673 23.2966 14.1951 23.1762C14.2325 22.9135 14.3099 22.6581 14.4247 22.4191C14.5378 22.0486 14.6661 21.8621 14.8063 21.8621H14.8198C15.057 21.8621 15.3549 22.2978 15.6707 22.7591C16.0016 23.2432 16.346 23.7425 16.6439 23.7764H16.6785L16.7131 23.7417C16.7506 23.6791 16.774 23.6091 16.7815 23.5365C16.7815 23.1838 16.3164 22.7226 15.8808 22.3173C15.567 22.0545 15.2761 21.7652 15.0114 21.4526C15.0109 21.4509 15.0109 21.4491 15.0114 21.4475C15.4022 20.6259 16.9208 20.1232 17.8198 20.0909C17.8105 20.1681 17.8012 20.2469 17.7919 20.3292C17.7077 20.9428 17.6593 21.5607 17.6468 22.18C17.6275 22.6714 17.7226 23.1605 17.9245 23.6086C17.9928 23.6764 18.0266 23.6772 18.0275 23.6772C18.0453 23.6754 18.0625 23.6697 18.0779 23.6605C18.0933 23.6513 18.1065 23.6389 18.1167 23.624C18.1268 23.6092 18.1336 23.5923 18.1365 23.5745C18.1395 23.5568 18.1386 23.5386 18.1338 23.5212C18.1335 23.515 18.1335 23.5088 18.1338 23.5026V21.6586C18.1197 21.2519 18.1312 20.8447 18.1684 20.4394C18.2013 20.1384 18.3567 20.0223 18.7239 20.0223C19.4245 20.0868 20.1008 20.3131 20.7 20.6836C20.7203 20.7272 20.7318 20.7745 20.7337 20.8226C20.6771 21.1625 20.5695 21.4918 20.4146 21.7993C20.2267 22.172 20.1004 22.5729 20.0407 22.9863C20.0445 23.0775 20.0811 23.1642 20.1437 23.2304L20.1783 23.2644H20.2129C20.429 23.2109 20.5176 22.9473 20.6299 22.6149C20.662 22.5208 20.694 22.4242 20.7329 22.3241C20.797 22.1172 20.8519 21.9002 20.9017 21.7027C20.9378 21.5353 20.9858 21.3706 21.0452 21.2101C21.0798 21.0363 21.1153 21.0363 21.149 21.0363H21.1659C21.3254 21.0363 21.7391 21.4695 21.7391 21.5958V21.6306H21.7737C21.994 21.6671 22.1367 22.2241 22.2253 22.6412C22.2396 22.7073 22.2523 22.7743 22.265 22.8396C22.3494 23.2635 22.4161 23.6213 22.7453 23.651H22.7748C22.8419 23.5967 22.8956 23.5276 22.9317 23.4491C22.9679 23.3705 22.9855 23.2847 22.9833 23.1982C22.8462 22.385 22.5139 21.6177 22.0151 20.9625C21.9828 20.9086 21.9592 20.85 21.945 20.7887C21.9844 20.7905 22.0236 20.7947 22.0624 20.8014C22.1389 20.8137 22.2162 20.8208 22.2937 20.8226H22.362C22.5575 20.8527 22.7553 20.8643 22.9529 20.8574C23.3447 20.8489 23.7357 20.8172 24.1237 20.7624C24.4048 20.7285 24.6707 20.698 24.9299 20.6827H24.9645L24.9991 20.648C25.1422 20.5534 25.3154 20.5162 25.4845 20.5437H25.6583C25.8206 20.5484 25.9829 20.5367 26.1429 20.5089C26.803 20.4876 27.4597 20.4048 28.1046 20.2614C28.6472 20.1456 29.1968 20.0654 29.7498 20.0214C30.7236 19.6798 31.738 19.4688 32.7667 19.394H33.2166V19.3483C33.3086 19.3344 33.4014 19.3261 33.4944 19.3237H33.7366L33.7712 19.2898C33.7927 19.2731 33.8101 19.2518 33.8222 19.2274C33.8344 19.203 33.8409 19.1763 33.8413 19.149C33.7712 18.9752 33.6311 18.9752 33.4952 18.9752L33.3779 18.9896C33.243 18.9942 33.1105 19.0268 32.9887 19.0854C32.949 19.0854 32.9043 19.0854 32.8689 19.0854C32.3539 19.1147 31.8414 19.179 31.3351 19.2779L31.2397 19.2948C30.722 19.3678 30.2006 19.4111 29.6781 19.4246L29.5092 19.4339C29.4122 19.4458 29.3159 19.4542 29.2239 19.4636C28.7664 19.5093 28.3714 19.5483 28.227 19.7815C28.2278 19.7455 28.2184 19.7101 28.1999 19.6793C28.1814 19.6485 28.1544 19.6237 28.1223 19.6077H28.0877C27.7001 19.625 27.3145 19.6738 26.9347 19.7535C26.4807 19.8489 26.0196 19.9056 25.5562 19.9231C25.1859 19.9487 24.8179 19.8477 24.512 19.6365C24.4571 19.6139 24.3983 19.6021 24.339 19.6018C24.3092 19.6105 24.2787 19.6165 24.2478 19.6196C24.1566 19.6323 24.0528 19.6467 24.0266 19.7756C24.0267 19.7823 24.0284 19.789 24.0315 19.795C24.0345 19.801 24.039 19.8063 24.0444 19.8103C24.0496 19.8145 24.0539 19.8198 24.057 19.8258C24.06 19.8318 24.0618 19.8384 24.0621 19.8451H24.0494C23.8903 19.7921 23.7422 19.7105 23.6122 19.6043L23.5776 19.5695H23.543C23.5031 19.5692 23.4635 19.5755 23.4256 19.5882C23.4583 19.4206 23.4744 19.2502 23.4737 19.0795C23.4737 19.06 23.4737 19.0405 23.4737 19.021C23.4737 18.8591 23.4805 18.692 23.2644 18.6615C23.1859 18.6615 23.1471 18.72 23.088 18.8099C23.0686 18.8379 23.0475 18.8709 23.0221 18.9057V18.9744C23.0438 19.0437 23.0569 19.1155 23.061 19.188C23.0583 19.3806 23.1314 19.5665 23.2644 19.7052L23.299 19.7399C23.3022 19.837 23.3389 19.9299 23.4028 20.0028L23.4383 20.0545L23.4729 20.0884H22.3975L22.4321 20.0553C22.4341 20.0367 22.4401 20.0188 22.4498 20.0028C22.4594 19.9867 22.4655 19.9688 22.4675 19.9502C22.4601 19.9162 22.4442 19.8847 22.4213 19.8586C22.3984 19.8325 22.3693 19.8127 22.3367 19.801C22.3212 19.7951 22.3069 19.7865 22.2945 19.7756H22.2852C22.2405 19.7683 22.1948 19.7788 22.1577 19.8047C22.1205 19.8306 22.0948 19.87 22.086 19.9146C22.1127 19.9775 22.1622 20.0278 22.2244 20.0553L22.2582 20.0876C21.776 20.0865 21.2964 20.0174 20.8333 19.8824C20.3064 19.548 19.6877 19.3895 19.0657 19.4296C18.7441 19.4296 18.4309 19.4483 18.1287 19.4653C17.8392 19.4822 17.5657 19.4983 17.2964 19.4983C16.9803 19.4126 16.6527 19.3776 16.3257 19.3949C15.4894 19.3957 14.6545 19.4657 13.8296 19.6043C13.6785 19.6131 13.5269 19.6014 13.3789 19.5695C13.3411 19.5713 13.3041 19.5589 13.275 19.5348C13.4605 19.4484 13.6616 19.401 13.8659 19.3957H13.9351V19.2567C13.9188 19.199 13.8821 19.1494 13.8319 19.1169C13.7817 19.0844 13.7215 19.0715 13.6625 19.0803H13.6076H13.5536C13.8919 18.9914 14.2379 18.9346 14.5868 18.9108L14.6628 18.904H14.6974L14.732 18.8692L14.7666 18.7989C14.732 18.6598 14.6265 18.6598 14.5235 18.6598L14.553 18.6454C14.5807 18.6363 14.6055 18.6198 14.6247 18.5977C14.6438 18.5756 14.6567 18.5487 14.6619 18.5199C14.6573 18.4833 14.642 18.4489 14.618 18.421C14.5939 18.3931 14.5622 18.373 14.5269 18.3631L14.4889 18.3461H14.1073C14.1073 18.3588 14.0972 18.3622 14.0837 18.3665C14.0639 18.3718 14.046 18.3825 14.032 18.3975C14.018 18.4125 14.0084 18.4311 14.0044 18.4513C14.0533 18.5742 14.0677 18.575 14.0964 18.5776C14.1125 18.5782 14.1283 18.5823 14.1428 18.5894C14.2368 18.6001 14.3291 18.6232 14.4171 18.6581C14.3133 18.681 14.1639 18.7031 14.0195 18.7243C13.9292 18.737 13.8406 18.7505 13.7612 18.7633C13.6954 18.7905 13.6277 18.8132 13.5587 18.8311C13.4227 18.8692 13.324 18.8972 13.2759 19.0422C13.2759 19.0761 13.2759 19.1109 13.3096 19.1117H13.172C13.1535 19.0737 13.141 19.0331 13.1349 18.9913C13.1222 18.9269 13.113 18.8794 12.999 18.8336C12.9262 18.873 12.8654 18.9316 12.8234 19.0032C12.7959 19.0538 12.7564 19.0968 12.7084 19.1284C12.6604 19.16 12.6054 19.1793 12.5482 19.1846C12.5149 19.0362 12.5032 18.8837 12.5136 18.7319V18.3139C12.5482 18.2444 12.582 18.2444 12.6166 18.2444C12.669 18.259 12.7148 18.2912 12.7465 18.3356C12.7781 18.3801 12.7936 18.434 12.7905 18.4886V18.5572L12.8158 18.5869C12.8277 18.6075 12.8442 18.625 12.8639 18.6381C12.8837 18.6512 12.9063 18.6595 12.9298 18.6624C13.0589 18.6361 13.0716 18.5733 13.0851 18.5123C13.0884 18.4921 13.0943 18.4724 13.1028 18.4538C13.1163 18.403 13.1399 18.3554 13.172 18.3139C13.9318 18.2444 14.7598 18.2096 15.6335 18.2096H17.2036H17.2222C17.2171 18.2096 17.0913 18.23 17.0913 18.3461C17.089 18.365 17.0909 18.3841 17.0969 18.4022C17.1029 18.4202 17.1128 18.4367 17.1259 18.4504H14.943C14.916 18.4518 14.8904 18.4631 14.8711 18.4822C14.8518 18.5012 14.8402 18.5267 14.8383 18.5538C14.851 18.5889 14.8739 18.6192 14.904 18.641C14.9341 18.6628 14.9701 18.6749 15.0072 18.6759C15.0332 18.68 15.0589 18.6863 15.084 18.6946C15.4285 18.7502 15.7761 18.7848 16.1248 18.798C16.4059 18.716 16.6985 18.681 16.9909 18.6946C17.5596 18.7069 18.1272 18.7516 18.6909 18.8285L18.7255 18.8328C18.7948 18.8328 19.1594 18.8328 19.5224 18.798C19.6136 18.798 19.7132 18.7878 19.8094 18.7785C19.9056 18.7692 19.9782 18.7624 20.0424 18.7624C20.0858 18.742 20.1329 18.7305 20.1808 18.7285C20.1802 18.7644 20.1895 18.7999 20.2079 18.8307C20.2262 18.8616 20.2528 18.8867 20.2846 18.9031L20.3539 18.9718L20.3885 18.9371H20.5615L20.5953 18.904C20.5953 18.9388 20.6341 18.9752 20.6662 19.0074L20.7008 19.0422L20.77 19.0074C20.7836 18.9942 20.8 18.9841 20.818 18.9781C20.8359 18.9721 20.855 18.9702 20.8738 18.9727H20.9084L20.9431 18.9379C20.9445 18.9223 20.9488 18.907 20.9557 18.893C20.9697 18.8636 20.9772 18.8315 20.9777 18.7989C20.9777 18.6598 20.8722 18.6242 20.77 18.5894C20.7341 18.5887 20.6987 18.5981 20.6679 18.6167C20.6371 18.6353 20.6122 18.6623 20.5961 18.6946C20.5689 18.6566 20.5319 18.6268 20.4891 18.6082C20.4462 18.5897 20.3992 18.5832 20.353 18.5894H20.3404C20.31 18.5199 20.2796 18.5199 20.25 18.5199C20.2316 18.5181 20.2137 18.5124 20.1977 18.503C20.1819 18.4929 20.164 18.4868 20.1454 18.4852C19.1746 18.4504 18.2486 18.4504 17.2677 18.4504L17.3023 18.4156C17.3026 18.4035 17.3071 18.3918 17.315 18.3826C17.3309 18.3621 17.3387 18.3364 17.337 18.3105C17.337 18.2571 17.2762 18.2257 17.2247 18.2088H17.239H18.1676C18.3661 18.2865 18.5785 18.322 18.7914 18.3131C19.3272 18.3013 19.861 18.2432 20.3868 18.1393C20.3868 18.1613 20.4003 18.1689 20.4189 18.1808C20.4322 18.1888 20.4446 18.1981 20.456 18.2088L20.4906 18.2435H20.6991V18.1104C21.0388 18.0363 21.3827 17.9833 21.7289 17.9519L21.8775 17.9358C21.9089 17.9882 21.9212 18.0499 21.9121 18.1104C21.9037 18.2721 21.8823 18.4329 21.848 18.5911C21.8056 18.7881 21.7802 18.9884 21.772 19.1897C21.758 19.3101 21.7826 19.4318 21.8421 19.5373L21.8767 19.5721H21.945C22.2278 19.5433 22.2776 19.2558 22.2894 18.9786H22.3612V18.9438H22.4313V18.8735C22.4292 18.8341 22.4147 18.7964 22.3898 18.7658C22.3649 18.7353 22.3309 18.7136 22.2928 18.7039C22.2928 18.5504 22.2802 18.397 22.2709 18.2732C22.2641 18.1774 22.2582 18.0952 22.2582 18.0375H22.2928C22.5377 17.9606 22.7876 17.9008 23.0407 17.8586L23.1943 17.8281C23.3674 17.7933 23.5084 17.7586 23.6451 17.7238C23.6756 17.7042 23.7098 17.6909 23.7456 17.6848C23.773 17.7091 23.8052 17.7273 23.8401 17.7382L23.8882 17.7586L23.9228 17.6543V17.7586C24.5352 17.6664 25.1525 17.6118 25.7715 17.595C26.1775 17.5755 26.5953 17.556 27.0089 17.5102H27.0798V17.4406C27.0554 17.3177 27.014 17.316 26.9549 17.3143C26.9264 17.3145 26.8979 17.3105 26.8705 17.3025H26.489C26.1454 17.3025 25.6735 17.3287 25.3291 17.3499C25.1113 17.3618 24.9391 17.372 24.8606 17.372C24.6403 17.3677 24.42 17.3794 24.2014 17.4067C24.1348 17.4239 24.0671 17.4361 23.9988 17.4432C23.9568 17.4468 23.915 17.4533 23.8739 17.4627C23.8587 17.4356 23.8333 17.4296 23.8038 17.4228C23.7854 17.4194 23.7676 17.4137 23.7506 17.4059V17.4016C23.7162 17.3015 23.6935 17.1976 23.6831 17.0922V16.4987H23.7523L23.7869 16.464C23.7962 16.4453 23.8055 16.4283 23.8139 16.4131C23.8392 16.377 23.8536 16.3343 23.8553 16.2901C23.8525 16.2664 23.8443 16.2436 23.8313 16.2236C23.8182 16.2036 23.8007 16.1869 23.7802 16.1748C23.7692 16.1655 23.7599 16.1579 23.7515 16.1494L23.7861 16.0807V15.94H23.7515C23.7833 15.9238 23.8099 15.8988 23.8283 15.8681C23.8466 15.8374 23.856 15.802 23.8553 15.7662C23.8502 15.7518 23.846 15.7382 23.8418 15.7247C23.8375 15.6827 23.8195 15.6433 23.7907 15.6127C23.7618 15.582 23.7237 15.5618 23.6822 15.5551C23.6755 15.5552 23.6689 15.5569 23.6629 15.56C23.6569 15.5631 23.6517 15.5675 23.6476 15.5729C23.6436 15.5783 23.6384 15.5827 23.6324 15.5858C23.6264 15.5888 23.6198 15.5905 23.613 15.5907V15.1727C23.603 14.9632 23.6146 14.7533 23.6476 14.5462C23.6603 14.5123 23.673 14.4817 23.6839 14.4529C23.7067 14.3889 23.7332 14.3264 23.7633 14.2655C23.7428 14.3255 23.7336 14.3887 23.7363 14.4521C23.7346 14.5301 23.7284 14.6079 23.7177 14.6852L23.6831 14.72C23.67 14.7335 23.6601 14.7498 23.6541 14.7677C23.6481 14.7857 23.6462 14.8047 23.6485 14.8234V15.1371L23.7878 15.1023C23.8561 15.1023 23.8907 14.9989 23.8907 14.9625V14.8582H23.9254V14.8234C23.9496 14.7092 23.9612 14.5926 23.96 14.4758V14.4063C23.9584 14.3792 23.9469 14.3536 23.9278 14.3343C23.9086 14.3151 23.8831 14.3036 23.8561 14.302C23.8424 14.3001 23.8285 14.302 23.8157 14.3073C23.8029 14.3127 23.7918 14.3214 23.7835 14.3325C23.7911 14.3156 23.7996 14.302 23.8207 14.302L23.8485 14.2884C23.9148 14.2621 23.9745 14.2216 24.0236 14.1698C24.0727 14.1179 24.11 14.056 24.133 13.9883C24.1572 13.9461 24.1692 13.8979 24.1676 13.8493C24.1642 13.7948 24.1412 13.7435 24.1028 13.705C24.0644 13.6664 24.0133 13.6433 23.9591 13.6399C23.8018 13.6602 23.6491 13.7072 23.5075 13.7789C23.3666 13.851 23.2144 13.8983 23.0576 13.9188C22.8795 13.8832 22.7799 13.8425 22.7799 13.4313V13.3609C22.7436 13.143 22.7073 13.0472 22.5714 13.0133C22.3663 13.0727 22.3342 13.3287 22.3089 13.5347C22.3038 13.5729 22.2996 13.6085 22.2945 13.6407C22.2739 13.7407 22.2151 13.8287 22.1307 13.8857C22.0576 13.9344 22.0047 14.0083 21.9822 14.0934C21.9822 14.2045 22.0244 14.2732 22.1552 14.3724C22.1404 15.5033 22.0479 16.6319 21.8783 17.7501C21.6776 17.7825 21.4747 17.8001 21.2714 17.8027C21.0567 17.8066 20.8425 17.8239 20.6299 17.8544C19.3806 17.9239 18.1473 17.9239 16.9546 17.9239H15.5997C15.678 17.8977 15.7604 17.8859 15.8429 17.8891H15.9475L15.9788 17.8781C16.0632 17.8518 16.0893 17.8425 16.1206 17.7493C16.0708 17.6272 16.0218 17.6246 15.9737 17.6229C15.9525 17.6234 15.9315 17.6194 15.9121 17.6111C15.8229 17.5801 15.7283 17.5683 15.6344 17.5763H15.4309C15.4198 17.5859 15.4064 17.5926 15.3921 17.5958C15.3583 17.606 15.317 17.6178 15.2925 17.7145C15.2987 17.7342 15.3069 17.7533 15.317 17.7713L15.2925 17.8196H15.3271V17.7874C15.346 17.8107 15.3708 17.8286 15.3988 17.8391L15.4301 17.8544H14.2491L14.2534 17.8493C14.2871 17.8154 14.3175 17.784 14.3175 17.7501C14.3175 17.5763 14.1766 17.5763 14.109 17.5763C14.0415 17.5763 13.936 17.6051 13.936 17.7153C13.9336 17.7342 13.9354 17.7534 13.9414 17.7715C13.9474 17.7895 13.9574 17.806 13.9706 17.8196H13.1729C13.194 17.8031 13.2112 17.782 13.2232 17.758C13.2351 17.7339 13.2416 17.7075 13.2421 17.6806V17.6111L13.1729 17.5763C12.9813 17.5119 12.896 17.2974 12.896 16.8794C12.9109 16.5093 12.9532 16.1409 13.0226 15.7772C13.0855 15.4519 13.1245 15.1223 13.1391 14.7912C13.1391 14.4275 13.0193 14.2342 12.7922 14.2342C12.661 14.2933 12.5204 14.3283 12.3769 14.3376C12.2949 14.3353 12.2133 14.3239 12.1338 14.3037C12.0543 14.2828 11.9727 14.2712 11.8907 14.2689C11.6518 14.2689 11.5142 14.4639 11.2998 15.1049C11.2455 15.1868 11.2214 15.2851 11.2314 15.383C11.2314 15.5424 11.2567 15.695 11.4399 15.7314H11.4737C11.5074 16.174 11.542 17.088 11.5437 17.1236C11.5922 17.2846 11.6808 17.4305 11.8012 17.5475C11.8797 17.6323 11.9422 17.7018 11.9253 17.7832C11.9145 17.8724 11.8788 17.9568 11.8223 18.0265C11.4313 18.0859 11.0357 18.1095 10.6405 18.0969H9.08226C8.99193 18.0969 8.86363 18.0901 8.71422 18.0825C8.52345 18.0723 8.30735 18.0621 8.11067 18.0621C8.02626 18.0697 7.94184 18.0723 7.85743 18.0748C7.58056 18.0833 7.36362 18.0892 7.30959 18.3054V18.3402L7.34336 18.375C7.66333 18.543 8.02445 18.6156 8.38417 18.5844C8.77922 18.5844 9.23673 18.5505 9.6799 18.5165C9.85885 18.503 10.0268 18.4903 10.1864 18.4809C10.1718 18.4962 10.1601 18.514 10.1518 18.5335C10.1433 18.5521 10.1319 18.5693 10.118 18.5844C10.0825 18.5479 10.0479 18.5148 10.0142 18.5148C9.88153 18.5248 9.75569 18.5777 9.65553 18.6656C9.55538 18.7535 9.48632 18.8717 9.45874 19.0023C9.47318 19.1256 9.53571 19.2381 9.63263 19.3152L9.66639 19.3499L9.701 19.3152C9.78374 19.228 9.83667 19.1167 9.8521 18.9973C9.88333 18.8684 9.9095 18.7573 10.0209 18.7573C10.0296 18.7566 10.0384 18.7566 10.0471 18.7573H10.1172V18.6539L10.1509 18.6886L10.1855 18.7234H10.2201C10.2668 18.7226 10.3132 18.7166 10.3586 18.7056C10.4043 18.6953 10.451 18.6896 10.4979 18.6886C10.6363 18.6183 10.7055 18.5835 10.7055 18.4792V18.4445C10.7514 18.4588 10.7982 18.4698 10.8456 18.4775C10.8932 18.4836 10.9397 18.4959 10.9841 18.514C11.1914 18.538 11.4 18.5496 11.6087 18.5488H11.6771C11.675 18.5826 11.6708 18.6163 11.6644 18.6496C11.6265 18.8691 11.6079 19.0916 11.6087 19.3143H11.6045C11.359 19.3967 11.1034 19.4449 10.8448 19.4576C10.8068 19.4576 10.7722 19.4576 10.7393 19.4525C10.6767 19.4522 10.6144 19.4449 10.5536 19.4305C10.5237 19.4232 10.4931 19.4189 10.4624 19.4178L10.4278 19.383C10.4796 19.3735 10.5273 19.3484 10.5646 19.311C10.6018 19.2736 10.6268 19.2257 10.6363 19.1736C10.6345 19.1568 10.6283 19.1407 10.6184 19.127C10.6085 19.1133 10.5951 19.1025 10.5797 19.0956C10.5539 19.0806 10.5251 19.0716 10.4953 19.0693C10.2634 19.1108 10.0539 19.2341 9.90443 19.4169C9.85821 19.4195 9.81238 19.4269 9.76769 19.439C9.74416 19.4452 9.72016 19.4495 9.69594 19.4517H9.62672C9.62672 19.4517 9.59126 19.4517 9.5575 19.5204C9.55706 19.5295 9.55849 19.5387 9.56168 19.5473C9.56487 19.5559 9.56977 19.5637 9.57607 19.5704C9.58999 19.583 9.60796 19.5902 9.62672 19.5907C9.69594 19.5907 9.73054 19.5907 9.73054 19.6255V19.6603H9.62672C9.59126 19.6603 9.5575 19.6603 9.52289 19.7637C9.53022 19.7814 9.5405 19.7977 9.55328 19.812C9.5575 19.8163 9.5575 19.8163 9.5575 19.8341C9.55973 19.8528 9.55779 19.8718 9.5518 19.8897C9.54581 19.9076 9.53594 19.9239 9.52289 19.9375C9.38952 19.9485 9.22998 19.9638 9.062 19.9816C8.60496 20.0365 8.14545 20.0682 7.68523 20.0765C7.29585 20.1046 6.90513 20.0452 6.54144 19.9027L6.50683 19.8688L6.47307 19.9027C6.30372 19.9512 6.12831 19.9749 5.95224 19.9731C5.48956 19.9539 5.02901 19.8992 4.57463 19.8095C4.28553 19.751 3.99277 19.7124 3.69843 19.6942C3.65524 19.6868 3.61096 19.6893 3.56887 19.7014C3.52678 19.7136 3.48796 19.7352 3.45532 19.7645C3.4422 19.7782 3.43229 19.7947 3.4263 19.8128C3.42032 19.8308 3.41841 19.8499 3.42071 19.8688C3.49077 20.2207 4.07997 20.2859 4.70462 20.3563C5.18824 20.4041 5.67395 20.4273 6.1599 20.4258C6.95562 20.6061 7.77209 20.6765 8.58675 20.6353H10.1813C10.7533 20.581 11.3303 20.64 11.8797 20.8091C11.8991 20.8184 11.9143 20.8286 11.9295 20.8362C11.9657 20.8618 12.0085 20.8762 12.0527 20.8777C12.0976 20.8743 12.1408 20.8594 12.1783 20.8345C12.2159 20.8095 12.2464 20.7754 12.2671 20.7353C12.279 20.7166 12.2857 20.7039 12.2958 20.7039C12.7086 20.7039 13.129 20.6954 13.5359 20.687C13.9579 20.6776 14.3893 20.6692 14.8265 20.6692C14.7784 20.7489 14.683 20.8794 14.5615 21.0456C14.0302 21.6659 13.6361 22.3924 13.405 23.177H13.4008H13.3822C13.3723 23.1797 13.3621 23.1814 13.3518 23.1821L13.405 23.2084V23.2771C13.4069 23.2974 13.4115 23.3173 13.4185 23.3364C13.4306 23.3735 13.4377 23.4119 13.4396 23.4509C13.4023 23.4206 13.3667 23.388 13.3333 23.3534C13.2754 23.2789 13.2024 23.2177 13.1192 23.1739C13.0359 23.13 12.9443 23.1045 12.8504 23.099C12.8656 23.0694 12.9348 23.0651 12.9939 23.0617C13.053 23.0583 13.0885 23.0566 13.0935 23.0397C13.0986 23.0227 13.0851 23.0151 13.0589 22.9956C12.941 22.9891 12.8243 23.0222 12.7272 23.0897C12.6526 23.1444 12.562 23.1724 12.4697 23.1694C12.4919 23.1586 12.5106 23.1419 12.5238 23.1211C12.5371 23.1003 12.5444 23.0762 12.5449 23.0515C12.5541 22.9964 12.5617 22.9456 12.6782 22.9252H12.6588C12.4005 22.9252 12.3296 22.9617 12.2621 23.0626L12.1591 23.0287C12.056 23.1398 11.9174 23.2112 11.7674 23.2304L11.7421 23.2364V23.1677C11.6974 23.3669 11.6104 23.3695 11.5007 23.3703C11.4286 23.3675 11.3569 23.3817 11.2913 23.4119V23.3067C11.2581 23.3622 11.2117 23.4087 11.1564 23.4419C11.101 23.4752 11.0384 23.4943 10.9739 23.4975C10.9406 23.4971 10.9076 23.4914 10.876 23.4805L10.9452 23.3771C10.8706 23.4203 10.7865 23.4445 10.7004 23.4475C10.5988 23.4445 10.5 23.4816 10.4253 23.5509C10.4225 23.5512 10.4198 23.5508 10.4171 23.5499C10.4145 23.5491 10.4121 23.5477 10.4101 23.5458C10.4042 23.5374 10.4101 23.5212 10.4101 23.5034C10.4101 23.4856 10.4244 23.4492 10.4101 23.4305C10.4009 23.4219 10.3899 23.4155 10.3779 23.4116C10.366 23.4078 10.3533 23.4068 10.3408 23.4085C10.3216 23.4085 10.3025 23.41 10.2834 23.4127C10.2553 23.4442 10.2208 23.4691 10.1822 23.486C10.1436 23.5028 10.1018 23.5111 10.0598 23.5102C10.0276 23.5127 9.99573 23.5024 9.97112 23.4814C9.97112 23.4534 9.99391 23.4025 10.0387 23.4025C10.0514 23.4027 10.0639 23.4062 10.0749 23.4127H10.0901C10.0856 23.417 10.0819 23.4221 10.0793 23.4277C10.0767 23.4334 10.0752 23.4395 10.0749 23.4458L10.1442 23.3771C10.1236 23.3732 10.1027 23.3712 10.0817 23.3712C10.0358 23.3711 9.99094 23.3853 9.95339 23.4119C9.91487 23.4383 9.8692 23.4522 9.82255 23.4517C9.80247 23.4518 9.78242 23.4501 9.76262 23.4466C9.76051 23.4449 9.7588 23.4427 9.75764 23.4402C9.75647 23.4377 9.75587 23.435 9.75587 23.4322C9.75587 23.4178 9.77528 23.4025 9.79807 23.3839C9.8261 23.3635 9.84966 23.3375 9.86729 23.3076L9.10758 23.5518C9.10849 23.5631 9.11166 23.5741 9.11688 23.5841C9.1221 23.5942 9.12927 23.6031 9.13797 23.6103C9.16245 23.6365 9.18524 23.6603 9.14219 23.7256H9.41906C9.44523 23.7383 9.45789 23.7527 9.45705 23.768C9.45705 23.8129 9.31608 23.8527 9.22491 23.885L9.1768 23.9002H9.34984V23.9604L9.48828 23.9257C9.41991 23.9672 9.38614 24.0028 9.38867 24.0325C9.39121 24.0622 9.45536 24.0952 9.51192 24.1173C9.56847 24.1393 9.60561 24.152 9.60646 24.1758C9.6073 24.1995 9.58029 24.2156 9.52205 24.2402C9.45552 24.2415 9.38919 24.248 9.32368 24.2597C9.27492 24.2687 9.22552 24.2738 9.17595 24.275H9.66386C9.62015 24.304 9.5731 24.3276 9.52373 24.3453C9.52735 24.3446 9.53109 24.3446 9.53471 24.3453C9.58233 24.3438 9.62976 24.3384 9.67652 24.3292C9.72802 24.3191 9.78024 24.3132 9.83268 24.3114L9.90106 24.2767C9.90018 24.2867 9.89669 24.2964 9.89093 24.3046C9.8808 24.3224 9.86983 24.3428 9.87911 24.3614C9.8884 24.3801 9.93229 24.4038 10.0057 24.4157C10.0637 24.3891 10.1268 24.3755 10.1906 24.3759C10.2971 24.3814 10.4017 24.4061 10.4995 24.4488L10.5257 24.4598C10.6011 24.4946 10.6819 24.5161 10.7646 24.5234C10.7772 24.5245 10.7899 24.5245 10.8026 24.5234C10.9056 24.4971 10.9545 24.4759 10.9562 24.4572C10.9579 24.4386 10.9233 24.4276 10.8878 24.4132C10.8524 24.3987 10.811 24.3835 10.811 24.3631C10.811 24.3428 10.8304 24.3326 10.8718 24.3148C10.8997 24.3072 10.9282 24.3021 10.9571 24.2995C10.9758 24.2979 10.9947 24.3005 11.0124 24.3071C11.0301 24.3137 11.046 24.3242 11.0592 24.3377C11.0724 24.3512 11.0884 24.3615 11.1061 24.3681C11.1237 24.3747 11.1426 24.3774 11.1613 24.3759L11.1959 24.2368H11.2989C11.2985 24.2477 11.2971 24.2584 11.2947 24.269C11.2919 24.2793 11.2919 24.2901 11.2947 24.3004C11.3065 24.3004 11.3192 24.2885 11.3361 24.2716C11.3559 24.2685 11.3759 24.2668 11.396 24.2665C11.4129 24.2665 11.4213 24.2665 11.423 24.2741C11.4247 24.2817 11.4036 24.3029 11.3741 24.3267C11.3285 24.3631 11.2728 24.4115 11.2964 24.442C11.3717 24.3537 11.4737 24.2927 11.5868 24.2682C11.5955 24.2671 11.6043 24.2671 11.6129 24.2682C11.6136 24.2695 11.614 24.2709 11.614 24.2724C11.614 24.2739 11.6136 24.2753 11.6129 24.2767C11.6129 24.2979 11.5564 24.3369 11.5184 24.3614C11.5053 24.3691 11.4934 24.3785 11.4829 24.3894C11.5029 24.386 11.5222 24.3797 11.5403 24.3708C11.6365 24.2999 11.7412 24.2415 11.8518 24.197L13.3434 24.1622L13.2742 24.2656C13.2959 24.2559 13.3196 24.2512 13.3434 24.2521C13.4439 24.263 13.5421 24.2893 13.6346 24.3301C13.7643 24.3821 13.8994 24.4193 14.0373 24.4411L14.0035 24.5107H14.1766L14.1065 24.5454C14.1502 24.5535 14.1946 24.5572 14.239 24.5564H14.3116H14.3867C14.4806 24.5526 14.5743 24.5682 14.6619 24.6022C14.6451 24.5976 14.6278 24.595 14.6104 24.5946C14.5774 24.5953 14.5459 24.609 14.5228 24.6328C14.4998 24.6566 14.487 24.6885 14.4872 24.7218H15.0781C15.0781 24.7328 15.1059 24.7489 15.1355 24.7659C15.165 24.7828 15.2131 24.8091 15.2098 24.8294C15.2064 24.8498 15.1861 24.8532 15.1473 24.8608L15.3887 24.826L15.355 24.8956C15.6008 24.9725 15.8572 25.0097 16.1147 25.0058C16.3426 25.0058 16.5663 24.9837 16.8018 24.9609H16.8204C17.044 24.9388 17.299 24.9125 17.5632 24.9125C17.6946 24.9122 17.8259 24.919 17.9565 24.9329V24.9676C18.078 24.9126 18.1936 24.8456 18.3018 24.7675C18.3592 24.7285 18.4183 24.6887 18.4765 24.6548C18.4903 24.6497 18.5049 24.6471 18.5196 24.6472C18.5508 24.6489 18.5815 24.6555 18.6107 24.6667L18.6276 24.6709C18.6749 24.6872 18.7245 24.6958 18.7745 24.6963C18.8028 24.6964 18.8311 24.6938 18.8589 24.6887C18.8403 24.6768 18.8327 24.665 18.8336 24.6522C18.8336 24.6175 18.9028 24.5802 18.9822 24.5386C19.0356 24.5115 19.087 24.4803 19.1358 24.4454L19.3789 24.6548L19.3637 24.6412C19.2889 24.5738 19.2238 24.4962 19.1704 24.4106L19.205 24.3411H19.2396L19.2742 24.3759C19.2721 24.3944 19.2661 24.4124 19.2565 24.4284C19.2468 24.4441 19.2408 24.4618 19.2388 24.4801L19.2734 24.4454C19.2916 24.4934 19.3205 24.5366 19.3578 24.5717L19.3451 24.5844C19.3989 24.6444 19.4735 24.6814 19.5536 24.6879C19.6325 24.7148 19.7132 24.7364 19.795 24.7523C19.9639 24.7896 20.1091 24.8218 20.1091 24.9329C20.1673 24.9506 20.228 24.9595 20.2889 24.9592C20.3984 24.9549 20.5069 24.9372 20.6122 24.9066H20.6172C20.7246 24.8749 20.8355 24.8567 20.9473 24.8523C20.9915 24.852 21.0356 24.856 21.079 24.8642L20.9059 25.0389L21.252 25.0728V24.9685H21.2554C21.3558 24.9685 21.4242 24.9685 21.4242 25.0041L21.3786 25.049C21.3647 25.04 21.3487 25.0344 21.3322 25.0329C21.3153 25.0312 21.3018 25.0439 21.2883 25.0711ZM26.3531 23.1211C26.129 22.9976 25.8969 22.8894 25.6583 22.7972H25.6541C25.6541 22.7972 25.6541 22.8014 25.6609 22.8065C25.6828 22.8184 25.8238 22.8727 26.3497 23.1211H26.3531ZM22.606 18.9082C22.606 18.9421 22.6414 18.9778 22.676 19.0117L22.7098 19.0464H22.7444C22.7582 19.0332 22.7748 19.0233 22.7929 19.0173C22.811 19.0113 22.8302 19.0093 22.8491 19.0117H22.9521V18.9074C22.9521 18.7955 22.8879 18.7556 22.8322 18.7556C22.8138 18.7557 22.7957 18.7598 22.779 18.7675C22.7183 18.7675 22.606 18.7972 22.606 18.9082ZM28.4549 18.5462C28.436 18.5522 28.4165 18.5562 28.3967 18.5581C28.3831 18.5694 28.3677 18.5783 28.3511 18.5844C28.3097 18.603 28.2574 18.6259 28.2574 18.6988V18.7675H28.3266C28.4911 18.7971 28.6526 18.8411 28.8095 18.8989C28.8939 18.9252 28.9732 18.954 29.0543 18.9769H29.1243C29.1918 18.9421 29.2628 18.9074 29.2628 18.8031C29.1876 18.6259 28.9842 18.5954 28.7867 18.5666C28.7136 18.5568 28.6411 18.5426 28.5697 18.5242C28.5306 18.5259 28.4919 18.5333 28.4549 18.5462ZM25.6575 18.631C25.6641 18.6693 25.6803 18.7054 25.7045 18.7358C25.7287 18.7662 25.7601 18.7899 25.7959 18.8048H25.866C25.8891 18.8022 25.9118 18.7968 25.9335 18.7887C25.956 18.7798 25.9796 18.7738 26.0036 18.7709H26.1066L26.0382 18.7022C26.039 18.6748 26.0345 18.6475 26.0248 18.6219C26.0151 18.5963 26.0004 18.5729 25.9816 18.553C25.9616 18.5336 25.9379 18.5184 25.912 18.5082C25.886 18.498 25.8584 18.4931 25.8305 18.4936C25.7706 18.4903 25.6575 18.5191 25.6575 18.6293V18.631ZM28.0151 17.5509C28.0123 17.5747 28.0064 17.5981 27.9974 17.6204C27.9882 17.6429 27.9822 17.6666 27.9797 17.6908C27.9774 17.7096 27.9793 17.7288 27.9853 17.7468C27.9913 17.7649 28.0012 17.7813 28.0143 17.795L28.0489 17.8298H28.1181C28.2592 17.8238 28.3989 17.8005 28.5343 17.7603H28.5689L28.6035 17.7255C28.6128 17.7069 28.6221 17.6908 28.6297 17.6763C28.6556 17.6395 28.6703 17.5959 28.6719 17.5509C28.6719 17.4135 28.5368 17.3771 28.4642 17.3771C28.4339 17.3908 28.4022 17.4013 28.3697 17.4084C28.3048 17.4216 28.2428 17.4463 28.1865 17.4813V17.4466C28.1788 17.4221 28.1654 17.3998 28.1473 17.3817C28.1292 17.3635 28.1071 17.35 28.0827 17.3423L28.0455 17.3542C27.9656 17.3746 27.8938 17.4189 27.8396 17.4813C27.8527 17.5087 27.8722 17.5325 27.8964 17.5507C27.9207 17.5688 27.949 17.5808 27.9788 17.5856V17.4847L28.0151 17.5509ZM27.3905 17.4118C27.3852 17.4484 27.3926 17.4856 27.4116 17.5173C27.4305 17.549 27.4597 17.5731 27.4943 17.5856L27.5289 17.6195H27.5635C27.5773 17.6066 27.5938 17.5969 27.6117 17.591C27.6296 17.5852 27.6486 17.5833 27.6674 17.5856H27.7374V17.4813C27.7374 17.3431 27.6015 17.3075 27.5289 17.3075C27.4563 17.3075 27.3905 17.3389 27.3905 17.4101V17.4118ZM133.452 34.2471C133.465 33.8848 133.549 33.5286 133.7 33.1992C133.851 32.8697 134.065 32.5736 134.33 32.3278C134.595 32.0819 134.906 31.8914 135.246 31.7671C135.585 31.6428 135.945 31.5872 136.305 31.6036C137.093 31.5978 137.851 31.899 138.422 32.4438L137.708 33.1356L137.511 33.0118L137.536 32.9872C137.705 32.7897 137.536 32.5913 137.437 32.4929C137.285 32.3637 137.109 32.2665 136.919 32.2071C136.729 32.1477 136.529 32.1273 136.331 32.147C136.051 32.1319 135.771 32.177 135.511 32.2792C135.25 32.3813 135.013 32.5383 134.818 32.7395C134.622 32.9407 134.471 33.1815 134.376 33.4459C134.28 33.7103 134.242 33.9921 134.263 34.2725C134.285 34.9887 134.581 35.669 135.09 36.171C135.599 36.6729 136.282 36.9578 136.995 36.966C137.61 36.966 137.807 36.7185 137.881 36.398H138.103V37.362C137.781 37.4443 137.45 37.4859 137.118 37.4858C136.665 37.5184 136.21 37.4602 135.779 37.3145C135.349 37.1689 134.951 36.9386 134.61 36.6373C134.269 36.3359 133.991 35.9693 133.792 35.559C133.593 35.1487 133.478 34.7027 133.452 34.2471ZM104.198 37.3611V36.2242H104.445C104.441 36.2901 104.451 36.3562 104.474 36.4179C104.498 36.4797 104.534 36.5358 104.58 36.5825C104.627 36.6292 104.683 36.6655 104.744 36.6889C104.805 36.7124 104.871 36.7224 104.937 36.7185C105.359 36.7185 105.773 36.2946 105.995 35.8045L104.027 32.2216C103.904 31.9741 103.858 31.8749 103.633 31.8749V31.6756H105.011V31.9232H104.961C104.863 31.9232 104.667 31.9478 104.793 32.1945L106.342 35.0856L107.376 32.3429C107.417 32.2665 107.442 32.1821 107.449 32.0953C107.447 32.0509 107.429 32.0089 107.397 31.9775C107.366 31.9461 107.324 31.9276 107.28 31.9257H107.181V31.7265H108.453V31.924C108.306 31.924 108.109 31.9741 107.937 32.3691L106.634 35.7791C106.451 36.443 106.03 37.0154 105.452 37.3857C105.271 37.4565 105.079 37.4902 104.885 37.4849C104.651 37.4839 104.418 37.442 104.198 37.3611ZM72.2135 37.0169V35.9275H72.46L72.4845 36.1742C72.5098 36.4955 72.8779 36.7431 73.1733 36.8423C73.4178 36.9243 73.6758 36.9577 73.933 36.9406C74.249 36.9807 74.5699 36.9328 74.8607 36.8021C75.1514 36.6714 75.4008 36.463 75.5816 36.1996C75.7002 35.998 75.7588 35.7664 75.7504 35.5324C75.7389 35.3588 75.6884 35.1901 75.6027 35.0389C75.2828 34.5938 74.7172 34.5447 74.0529 34.5447H73.6097V34.0004H74.0529C74.3133 34.0374 74.5789 34.0069 74.8243 33.9118C75.0697 33.8167 75.2868 33.6601 75.455 33.4569C75.524 33.3553 75.5583 33.2339 75.5529 33.111C75.5436 32.9824 75.5104 32.8568 75.455 32.7405C75.3387 32.507 75.135 32.3292 74.8886 32.2462C74.6337 32.1048 74.3416 32.0456 74.052 32.0766C73.7785 32.047 73.5027 32.1064 73.2653 32.2462C72.7487 32.4938 72.8221 32.7405 72.8432 32.9134L72.8677 32.9881L72.6466 33.0618L72.3022 32.0241C72.6557 31.8375 73.0382 31.7122 73.4333 31.6536C73.6688 31.6131 73.9078 31.5964 74.1466 31.6036C74.4189 31.6035 74.6907 31.6282 74.9586 31.6773C75.2913 31.7185 75.5983 31.8779 75.824 32.1267C76.0498 32.3756 76.1794 32.6973 76.1894 33.0338C76.1709 33.3301 76.0503 33.6108 75.8482 33.8274C75.646 34.044 75.3751 34.1831 75.0819 34.2208C75.3109 34.2226 75.5364 34.277 75.7413 34.3799C75.9461 34.4828 76.1248 34.6313 76.2636 34.8143C76.3876 35.0059 76.4557 35.2285 76.4603 35.4569C76.4631 35.7835 76.3869 36.1058 76.2383 36.3963C76.001 36.8332 75.6043 37.1608 75.1317 37.3103C74.7657 37.4268 74.3836 37.484 73.9997 37.4798C73.3727 37.4982 72.7534 37.3377 72.2135 37.0169ZM61.7076 37.3637V36.2242H61.954C61.9501 36.2901 61.9601 36.3562 61.9835 36.4179C62.0068 36.4797 62.0429 36.5358 62.0894 36.5825C62.1359 36.6292 62.1918 36.6655 62.2533 36.6889C62.3148 36.7124 62.3805 36.7224 62.4462 36.7185C62.8682 36.7185 63.2827 36.2946 63.5047 35.8045L61.5362 32.2216C61.4129 31.9741 61.3674 31.8749 61.142 31.8749V31.6756H62.5204V31.9232H62.4706C62.3727 31.9232 62.176 31.9478 62.3018 32.1945L63.8516 35.0856L64.9093 32.3429C64.9499 32.2677 64.9744 32.1848 64.9811 32.0995C64.979 32.0552 64.9606 32.0133 64.9293 31.9819C64.8981 31.9506 64.8564 31.932 64.8122 31.93H64.7135V31.7265H65.9932V31.924C65.8455 31.924 65.6488 31.9741 65.4766 32.3691L64.1437 35.7791C63.9611 36.443 63.5401 37.0154 62.9619 37.3857C62.7816 37.4565 62.589 37.4902 62.3955 37.4849C62.1605 37.4841 61.9274 37.4422 61.7067 37.3611L61.7076 37.3637ZM155.374 37.3883V37.1865C155.594 37.1048 155.778 36.947 155.892 36.7414L157.269 34.7159C156.979 34.7021 156.696 34.6157 156.447 34.4646C156.198 34.3134 155.99 34.1023 155.843 33.8503C155.742 33.634 155.691 33.3974 155.694 33.1585C155.691 32.8521 155.795 32.5544 155.99 32.3183C156.178 32.1108 156.411 31.9494 156.671 31.8465C156.932 31.7436 157.212 31.702 157.49 31.7248H160V31.8944C159.96 31.8907 159.92 31.8959 159.883 31.9095C159.846 31.923 159.812 31.9447 159.783 31.9729C159.755 32.0011 159.734 32.0352 159.72 32.0728C159.706 32.1103 159.701 32.1504 159.705 32.1903V36.8609C159.701 36.9008 159.706 36.941 159.72 36.9787C159.733 37.0163 159.755 37.0505 159.783 37.0788C159.811 37.1072 159.845 37.1289 159.883 37.1425C159.92 37.1561 159.96 37.1613 160 37.1577V37.3552H158.671V37.1577C158.71 37.1592 158.749 37.1526 158.785 37.1382C158.822 37.1239 158.855 37.1021 158.883 37.0742C158.911 37.0463 158.932 37.013 158.947 36.9763C158.961 36.9396 158.967 36.9003 158.966 36.8609V34.7905H158.004L156.256 37.3849L155.374 37.3883ZM156.531 33.2619C156.531 34.2505 157.515 34.2793 158.031 34.2793H158.967V32.253H157.687C157.244 32.2454 156.531 32.2954 156.531 33.2585L156.531 33.2619ZM140.662 37.3883V37.1865C140.702 37.1901 140.741 37.185 140.779 37.1714C140.816 37.1578 140.85 37.1362 140.878 37.1079C140.906 37.0797 140.928 37.0456 140.942 37.008C140.955 36.9704 140.96 36.9304 140.957 36.8906V32.2691H139.677C139.549 32.2525 139.42 32.2787 139.309 32.3437C139.259 32.3854 139.219 32.4386 139.193 32.4987C139.167 32.5588 139.156 32.6243 139.16 32.6896H138.914V31.7265H143.738V32.693H143.491C143.496 32.6277 143.484 32.5624 143.459 32.5023C143.433 32.4422 143.394 32.389 143.344 32.3471C143.231 32.2846 143.103 32.2585 142.975 32.2725H141.695V36.894C141.692 36.9338 141.697 36.9739 141.711 37.0115C141.724 37.049 141.746 37.0831 141.774 37.1113C141.802 37.1395 141.836 37.1612 141.874 37.1748C141.911 37.1884 141.951 37.1935 141.991 37.1899V37.3874L140.662 37.3883ZM110.35 37.3883V37.1865C110.39 37.1901 110.43 37.185 110.467 37.1714C110.505 37.1578 110.538 37.1362 110.567 37.1079C110.595 37.0797 110.616 37.0456 110.63 37.008C110.643 36.9704 110.648 36.9304 110.645 36.8906V32.2691H109.365C109.238 32.2525 109.108 32.2787 108.997 32.3437C108.947 32.3854 108.907 32.4386 108.881 32.4987C108.856 32.5588 108.844 32.6243 108.849 32.6896H108.602V31.7265H113.425V32.693H113.181C113.185 32.6277 113.174 32.5624 113.148 32.5023C113.122 32.4422 113.083 32.389 113.033 32.3471C112.921 32.2822 112.792 32.2559 112.664 32.2725H111.383V36.894C111.379 36.9338 111.384 36.974 111.398 37.0116C111.411 37.0492 111.433 37.0834 111.461 37.1117C111.489 37.1399 111.523 37.1616 111.561 37.1751C111.598 37.1886 111.638 37.1937 111.678 37.1899V37.3874L110.35 37.3883ZM101.542 37.3883V37.1865C101.581 37.1901 101.621 37.185 101.659 37.1714C101.696 37.1578 101.73 37.1362 101.758 37.1079C101.786 37.0797 101.808 37.0456 101.821 37.008C101.835 36.9704 101.84 36.9304 101.836 36.8906V32.2691H99.18V36.8906C99.1763 36.9304 99.1814 36.9704 99.195 37.008C99.2085 37.0456 99.2301 37.0797 99.2582 37.1079C99.2863 37.1362 99.3203 37.1578 99.3577 37.1714C99.395 37.185 99.435 37.1901 99.4745 37.1865V37.384H98.1459V37.1865C98.1856 37.1903 98.2256 37.1852 98.2631 37.1717C98.3006 37.1582 98.3346 37.1365 98.3628 37.1083C98.3911 37.08 98.4127 37.0459 98.4263 37.0082C98.4398 36.9706 98.445 36.9304 98.4413 36.8906V32.2208C98.445 32.1809 98.4398 32.1407 98.4263 32.103C98.4127 32.0654 98.3911 32.0312 98.3629 32.0029C98.3347 31.9745 98.3006 31.9528 98.2631 31.9392C98.2256 31.9256 98.1856 31.9204 98.1459 31.924V31.7265H102.873V31.924C102.834 31.9225 102.795 31.9291 102.758 31.9435C102.722 31.9578 102.688 31.9796 102.661 32.0075C102.633 32.0354 102.611 32.0687 102.597 32.1054C102.583 32.1421 102.576 32.1814 102.578 32.2208V36.8914C102.574 36.9313 102.579 36.9715 102.593 37.0091C102.606 37.0467 102.628 37.0809 102.656 37.1091C102.684 37.1374 102.718 37.159 102.756 37.1725C102.793 37.1861 102.833 37.1911 102.873 37.1873V37.3849L101.542 37.3883ZM82.5718 37.3883V37.1865C82.6109 37.188 82.65 37.1814 82.6864 37.1671C82.7229 37.1528 82.7561 37.1311 82.7838 37.1033C82.8115 37.0755 82.8333 37.0423 82.8476 37.0057C82.862 36.9691 82.8687 36.9299 82.8672 36.8906V32.2208C82.8709 32.1809 82.8657 32.1407 82.8522 32.103C82.8386 32.0654 82.8169 32.0312 82.7887 32.0029C82.7606 31.9745 82.7265 31.9528 82.689 31.9392C82.6515 31.9256 82.6115 31.9204 82.5718 31.924V31.7265H83.9004V31.924C83.8608 31.9204 83.8208 31.9255 83.7833 31.9392C83.7459 31.9528 83.7119 31.9745 83.6837 32.0029C83.6556 32.0312 83.634 32.0654 83.6206 32.1031C83.6071 32.1408 83.6021 32.1809 83.6058 32.2208V36.8914C83.6022 36.9312 83.6073 36.9713 83.6208 37.0089C83.6344 37.0464 83.656 37.0805 83.6841 37.1088C83.7122 37.137 83.7461 37.1587 83.7835 37.1723C83.8209 37.1858 83.8608 37.191 83.9004 37.1873V37.3849L82.5718 37.3883ZM56.6639 37.3883V37.1865C56.7035 37.1901 56.7435 37.185 56.7809 37.1714C56.8183 37.1578 56.8523 37.1362 56.8805 37.1079C56.9087 37.0797 56.9304 37.0456 56.944 37.0081C56.9576 36.9705 56.9628 36.9304 56.9593 36.8906V32.2208C56.9593 31.9978 56.8116 31.924 56.6394 31.924V31.7265H58.6814C60.5764 31.7265 60.8212 32.6659 60.8212 33.1847C60.8212 34.4938 59.2216 35.1347 57.698 35.6553V36.8914C57.6943 36.9312 57.6994 36.9713 57.713 37.0089C57.7265 37.0464 57.7481 37.0805 57.7762 37.1088C57.8043 37.137 57.8383 37.1587 57.8757 37.1723C57.913 37.1858 57.953 37.191 57.9926 37.1873V37.3849L56.6639 37.3883ZM57.6769 35.1152C59.2022 34.6913 60.064 33.9283 60.064 33.2365C60.064 32.3717 59.2022 32.2979 58.5387 32.2979H57.6726L57.6769 35.1152ZM54.8972 37.3883L53.2232 34.4209C52.8503 34.5692 52.4626 34.6769 52.0668 34.7422V36.8923C52.0633 36.9321 52.0685 36.9722 52.0822 37.0098C52.0958 37.0473 52.1174 37.0814 52.1456 37.1096C52.1738 37.1378 52.2078 37.1595 52.2452 37.1731C52.2827 37.1867 52.3226 37.1918 52.3622 37.1882V37.3857H51.0294V37.1865C51.069 37.1901 51.1089 37.185 51.1464 37.1714C51.1838 37.1578 51.2178 37.1362 51.246 37.1079C51.2742 37.0797 51.2958 37.0456 51.3094 37.0081C51.3231 36.9705 51.3283 36.9304 51.3248 36.8906V32.2208C51.3284 32.1809 51.3233 32.1407 51.3097 32.103C51.2962 32.0654 51.2745 32.0312 51.2463 32.0029C51.2181 31.9745 51.1841 31.9528 51.1466 31.9392C51.1091 31.9256 51.0691 31.9204 51.0294 31.924V31.7265H52.358V31.924C52.3188 31.9225 52.2797 31.9291 52.2432 31.9435C52.2066 31.9578 52.1734 31.9796 52.1457 32.0075C52.1179 32.0354 52.0962 32.0687 52.0819 32.1054C52.0676 32.1421 52.061 32.1814 52.0626 32.2208V34.1971C52.8449 34.0933 53.5847 33.7786 54.2033 33.2865C54.5215 33.0311 54.7393 32.6706 54.8178 32.2691C54.8178 32.0224 54.7444 31.9478 54.5966 31.9232H54.5232V31.7265H55.5075C55.5099 32.2882 55.3283 32.8352 54.9908 33.2831C54.7055 33.6294 54.3542 33.915 53.9576 34.1233L55.434 36.7431C55.4894 36.8644 55.5752 36.9693 55.6831 37.0473C55.791 37.1253 55.9172 37.1739 56.0494 37.1882V37.3857L54.8972 37.3883ZM153.459 37.3637V37.1661C153.499 37.1698 153.539 37.1646 153.576 37.151C153.614 37.1374 153.648 37.1156 153.676 37.0873C153.704 37.059 153.726 37.0248 153.739 36.9871C153.753 36.9495 153.758 36.9093 153.754 36.8694V33.5544L150.997 35.8045V36.8669C150.994 36.9067 150.999 36.9469 151.012 36.9845C151.026 37.0222 151.047 37.0564 151.075 37.0848C151.103 37.1131 151.137 37.1348 151.175 37.1485C151.212 37.1621 151.252 37.1673 151.292 37.1636V37.3611H149.964V37.1636C150.004 37.1673 150.044 37.1621 150.081 37.1485C150.119 37.1348 150.153 37.1131 150.181 37.0848C150.209 37.0564 150.231 37.0222 150.244 36.9845C150.258 36.9469 150.263 36.9067 150.259 36.8669V32.1953C150.262 32.1556 150.257 32.1155 150.244 32.0779C150.23 32.0404 150.209 32.0063 150.181 31.978C150.152 31.9498 150.118 31.9281 150.081 31.9145C150.044 31.9009 150.004 31.8958 149.964 31.8994V31.7019H151.292V31.8994C151.253 31.898 151.214 31.9047 151.178 31.9191C151.141 31.9334 151.108 31.9552 151.081 31.9829C151.053 32.0107 151.031 32.0439 151.017 32.0804C151.003 32.117 150.996 32.1561 150.997 32.1953V35.1364L153.753 32.888V32.1962C153.756 32.1564 153.751 32.1163 153.737 32.0787C153.724 32.0412 153.702 32.0071 153.674 31.9789C153.646 31.9506 153.612 31.929 153.574 31.9154C153.537 31.9018 153.497 31.8967 153.457 31.9003V31.7028H154.786V31.9003C154.746 31.8967 154.706 31.9018 154.669 31.9154C154.631 31.929 154.597 31.9506 154.569 31.9789C154.541 32.0071 154.519 32.0412 154.506 32.0787C154.492 32.1163 154.487 32.1564 154.49 32.1962V36.8669C154.487 36.9067 154.492 36.9469 154.505 36.9846C154.519 37.0222 154.541 37.0564 154.569 37.0848C154.597 37.1131 154.631 37.1348 154.669 37.1484C154.706 37.1621 154.746 37.1672 154.786 37.1636V37.3611L153.459 37.3637ZM144.356 37.3637V37.1661C144.65 37.1407 144.65 36.9432 144.65 36.8194V32.1987C144.654 32.159 144.649 32.1189 144.635 32.0813C144.622 32.0438 144.6 32.0097 144.572 31.9814C144.544 31.9532 144.51 31.9315 144.473 31.9179C144.435 31.9043 144.395 31.8992 144.356 31.9028V31.7053H146.619V31.7299C147.236 31.6523 147.86 31.8112 148.366 32.175C148.479 32.2791 148.57 32.405 148.633 32.5452C148.696 32.6853 148.731 32.8368 148.734 32.9906C148.74 33.1687 148.706 33.3458 148.636 33.5095C148.551 33.6805 148.43 33.8309 148.281 33.9503C148.132 34.0696 147.959 34.155 147.775 34.2004V34.2259C148.145 34.2722 148.487 34.4493 148.739 34.7254C148.992 35.0015 149.138 35.3587 149.153 35.7333C149.152 36.0343 149.063 36.3284 148.896 36.5788C148.73 36.8292 148.494 37.0249 148.218 37.1415C147.803 37.3033 147.359 37.3791 146.914 37.3645L144.356 37.3637ZM145.364 36.8448H146.545C147.112 36.8448 148.391 36.8694 148.391 35.7325C148.391 34.5709 147.209 34.4726 146.545 34.4726H145.364V36.8448ZM145.364 33.9537H146.692C146.914 33.9537 147.972 33.9537 147.972 33.1135C147.972 32.3717 147.212 32.2725 146.692 32.2725H145.364V33.9537ZM128.037 37.3611V37.1636C128.077 37.1672 128.117 37.1621 128.154 37.1484C128.192 37.1348 128.226 37.1131 128.254 37.0848C128.282 37.0564 128.304 37.0222 128.318 36.9846C128.331 36.9469 128.336 36.9067 128.333 36.8669V32.1953C128.336 32.1555 128.331 32.1154 128.317 32.0779C128.304 32.0403 128.282 32.0062 128.254 31.978C128.226 31.9498 128.192 31.9281 128.154 31.9145C128.117 31.901 128.077 31.8958 128.037 31.8994V31.7019H132.638V32.6659H132.391C132.293 32.242 131.998 32.2699 131.777 32.2699H129.07V33.9258H130.915C131.21 33.9258 131.431 33.9258 131.506 33.6299H131.751V34.7414H131.505C131.431 34.4446 131.185 34.4446 130.914 34.4446H129.069V36.8185H131.824C132.316 36.8185 132.636 36.7448 132.66 36.3488H132.907V37.3662L128.037 37.3611ZM119.573 37.3611V37.1636C119.612 37.1651 119.651 37.1585 119.688 37.1442C119.725 37.1298 119.758 37.108 119.786 37.0801C119.813 37.0523 119.835 37.0189 119.849 36.9822C119.864 36.9455 119.87 36.9062 119.869 36.8669V32.1953C119.872 32.1555 119.867 32.1154 119.853 32.0779C119.84 32.0403 119.818 32.0062 119.79 31.978C119.762 31.9498 119.728 31.9281 119.69 31.9145C119.653 31.901 119.613 31.8958 119.573 31.8994V31.7019H120.877V31.8994H120.902C120.862 31.8958 120.822 31.9009 120.785 31.9145C120.748 31.9281 120.714 31.9498 120.685 31.978C120.657 32.0063 120.636 32.0404 120.622 32.0779C120.609 32.1155 120.604 32.1556 120.607 32.1953V36.816H122.944V32.1953C122.947 32.1556 122.942 32.1155 122.929 32.0779C122.915 32.0404 122.894 32.0063 122.866 31.978C122.837 31.9498 122.803 31.9281 122.766 31.9145C122.729 31.9009 122.689 31.8958 122.649 31.8994V31.7019H123.977V31.8994C123.937 31.8958 123.897 31.9009 123.86 31.9145C123.823 31.9281 123.789 31.9498 123.761 31.978C123.732 32.0063 123.711 32.0404 123.697 32.0779C123.684 32.1155 123.679 32.1556 123.682 32.1953V36.816H126.019V32.1953C126.023 32.1556 126.017 32.1155 126.004 32.0779C125.99 32.0404 125.969 32.0063 125.941 31.978C125.913 31.9498 125.879 31.9281 125.841 31.9145C125.804 31.9009 125.764 31.8958 125.724 31.8994V31.7019H127.053V31.8994C127.013 31.8958 126.973 31.901 126.936 31.9145C126.899 31.9281 126.865 31.9498 126.836 31.978C126.808 32.0062 126.786 32.0403 126.773 32.0779C126.759 32.1154 126.754 32.1555 126.758 32.1953V36.866C126.754 36.9059 126.759 36.9461 126.773 36.9837C126.786 37.0214 126.808 37.0556 126.836 37.0839C126.864 37.1122 126.898 37.134 126.936 37.1476C126.973 37.1612 127.013 37.1664 127.053 37.1627V37.3603L119.573 37.3611ZM114.062 37.3611V37.1636C114.102 37.1673 114.142 37.1621 114.179 37.1485C114.216 37.1348 114.25 37.1131 114.279 37.0848C114.307 37.0564 114.328 37.0222 114.342 36.9845C114.355 36.9469 114.36 36.9067 114.356 36.8669V32.1953C114.36 32.1556 114.355 32.1155 114.341 32.0779C114.328 32.0404 114.306 32.0063 114.278 31.978C114.25 31.9498 114.216 31.9281 114.179 31.9145C114.141 31.9009 114.101 31.8958 114.062 31.8994V31.7019H118.639V32.6659H118.392C118.293 32.242 117.999 32.2699 117.777 32.2699H115.071V33.9258H116.916C117.21 33.9258 117.432 33.9258 117.507 33.6299H117.753V34.7414H117.507C117.433 34.4446 117.187 34.4446 116.916 34.4446H115.071V36.8185H117.85C118.342 36.8185 118.662 36.7448 118.687 36.3488H118.933V37.3662L114.062 37.3611ZM92.1146 37.3611V37.1636C92.1543 37.1672 92.1944 37.1621 92.2318 37.1484C92.2693 37.1348 92.3034 37.1131 92.3316 37.0848C92.3598 37.0564 92.3814 37.0222 92.395 36.9846C92.4086 36.9469 92.4137 36.9067 92.4101 36.8669V33.5544L89.654 35.8037V36.866C89.6504 36.9059 89.6555 36.9461 89.6691 36.9837C89.6826 37.0214 89.7043 37.0556 89.7325 37.0839C89.7607 37.1122 89.7947 37.134 89.8322 37.1476C89.8697 37.1612 89.9097 37.1664 89.9494 37.1627V37.3603H88.6208V37.1627C88.6605 37.1664 88.7005 37.1612 88.738 37.1476C88.7755 37.134 88.8096 37.1122 88.8378 37.0839C88.8659 37.0556 88.8876 37.0214 88.9012 36.9837C88.9147 36.9461 88.9199 36.9059 88.9162 36.866V32.1953C88.9197 32.1555 88.9145 32.1154 88.9009 32.0779C88.8872 32.0403 88.8656 32.0062 88.8374 31.978C88.8092 31.9498 88.7752 31.9281 88.7378 31.9145C88.7004 31.901 88.6604 31.8958 88.6208 31.8994V31.7019H89.9494V31.8994C89.9098 31.8958 89.8699 31.901 89.8324 31.9145C89.795 31.9281 89.761 31.9498 89.7328 31.978C89.7047 32.0062 89.683 32.0403 89.6694 32.0779C89.6557 32.1154 89.6505 32.1555 89.654 32.1953V35.1364L92.4151 32.888V32.1962C92.4186 32.1564 92.4134 32.1163 92.3998 32.0787C92.3861 32.0412 92.3645 32.0071 92.3363 31.9789C92.3081 31.9506 92.2741 31.929 92.2367 31.9154C92.1993 31.9018 92.1593 31.8967 92.1197 31.9003V31.7028H93.4483V31.9003H93.423C93.3834 31.8966 93.3435 31.9018 93.3061 31.9154C93.2687 31.9289 93.2348 31.9506 93.2066 31.9789C93.1785 32.0071 93.1569 32.0412 93.1434 32.0788C93.1299 32.1163 93.1248 32.1564 93.1284 32.1962V36.8669C93.1247 36.9067 93.1297 36.9469 93.1431 36.9845C93.1566 37.0222 93.1782 37.0564 93.2063 37.0848C93.2344 37.1131 93.2684 37.1348 93.3059 37.1485C93.3434 37.1621 93.3833 37.1673 93.423 37.1636V37.3611H92.1146ZM69.9715 37.3611V37.1636C70.0112 37.1672 70.0513 37.1621 70.0888 37.1484C70.1263 37.1348 70.1603 37.1131 70.1885 37.0848C70.2167 37.0564 70.2383 37.0222 70.2519 36.9846C70.2655 36.9469 70.2706 36.9067 70.267 36.8669V33.5544L67.5134 35.8045V36.8669C67.5098 36.9067 67.515 36.9469 67.5285 36.9846C67.5421 37.0222 67.5637 37.0564 67.5919 37.0848C67.6201 37.1131 67.6542 37.1348 67.6917 37.1484C67.7292 37.1621 67.7692 37.1672 67.8089 37.1636V37.3611H66.4802V37.1636C66.5194 37.1651 66.5585 37.1585 66.5951 37.1442C66.6316 37.1298 66.6648 37.108 66.6926 37.0801C66.7203 37.0523 66.742 37.0189 66.7563 36.9822C66.7706 36.9455 66.7772 36.9062 66.7757 36.8669V32.1953C66.7792 32.1555 66.7739 32.1154 66.7603 32.0779C66.7467 32.0403 66.725 32.0062 66.6968 31.978C66.6687 31.9498 66.6347 31.9281 66.5972 31.9145C66.5598 31.901 66.5199 31.8958 66.4802 31.8994V31.7019H67.8089V31.8994C67.7693 31.8958 67.7293 31.901 67.6919 31.9145C67.6545 31.9281 67.6205 31.9498 67.5923 31.978C67.5641 32.0062 67.5424 32.0403 67.5288 32.0779C67.5152 32.1154 67.5099 32.1555 67.5134 32.1953V35.1364L70.2695 32.888V32.1962C70.273 32.1564 70.2678 32.1163 70.2541 32.0787C70.2405 32.0412 70.2189 32.0071 70.1907 31.9789C70.1625 31.9506 70.1285 31.929 70.0911 31.9154C70.0536 31.9018 70.0137 31.8967 69.9741 31.9003V31.7028H71.3027V31.9003H71.2774C71.2378 31.8966 71.1979 31.9018 71.1605 31.9154C71.1231 31.9289 71.0891 31.9506 71.061 31.9789C71.0329 32.0071 71.0113 32.0412 70.9978 32.0788C70.9843 32.1163 70.9792 32.1564 70.9828 32.1962V36.8669C70.979 36.9067 70.9841 36.9469 70.9975 36.9845C71.011 37.0222 71.0325 37.0564 71.0607 37.0848C71.0888 37.1131 71.1228 37.1348 71.1603 37.1485C71.1977 37.1621 71.2377 37.1673 71.2774 37.1636V37.3611H69.9715ZM79.8621 37.3111H77.2817V37.1136C77.3214 37.1172 77.3614 37.112 77.3989 37.0984C77.4364 37.0848 77.4704 37.0631 77.4986 37.0347C77.5268 37.0064 77.5485 36.9722 77.562 36.9346C77.5756 36.8969 77.5807 36.8567 77.5771 36.8168V32.1462C77.5808 32.1063 77.5756 32.0662 77.562 32.0285C77.5485 31.9909 77.5268 31.9567 77.4986 31.9285C77.4704 31.9002 77.4363 31.8786 77.3988 31.8651C77.3613 31.8515 77.3213 31.8465 77.2817 31.8503V31.6527H78.6103V31.9003H78.6356C78.596 31.8967 78.5561 31.9018 78.5186 31.9154C78.4812 31.929 78.4472 31.9506 78.419 31.9789C78.3908 32.0071 78.3692 32.0412 78.3556 32.0787C78.3419 32.1163 78.3367 32.1564 78.3402 32.1962V33.7036C78.8924 33.691 79.4445 33.7324 79.9888 33.8274C80.3897 33.875 80.7733 34.0188 81.1072 34.2466C81.4412 34.4745 81.7157 34.7797 81.9075 35.1364C81.9977 35.364 82.0397 35.608 82.0307 35.8529C82.0328 36.1236 81.9556 36.3889 81.8087 36.6159C81.5988 36.8852 81.3198 37.092 81.0016 37.2139C80.6835 37.3358 80.3383 37.3682 80.0031 37.3077L79.8621 37.3111ZM78.3613 36.8423H79.8866C80.1249 36.882 80.3695 36.849 80.589 36.7476C80.8084 36.6462 80.9924 36.481 81.1174 36.2734C81.1922 36.1366 81.2344 35.9842 81.2406 35.8283C81.2303 35.596 81.1558 35.3713 81.0253 35.1793C80.8948 34.9872 80.7136 34.8356 80.502 34.7414C79.9721 34.4557 79.3813 34.303 78.78 34.2962L78.3579 34.2717L78.3613 36.8423ZM78.3613 36.8423H78.3368H78.3613ZM141.947 27.0287C141.002 25.8087 139.687 25.8087 138.336 25.8087H136.245C135.603 25.8087 133.647 25.8087 132.938 27.3678C132.769 27.6722 132.703 28.0792 132.23 28.0792C132.087 28.0778 131.951 28.0204 131.85 27.9191C131.749 27.8178 131.691 27.6807 131.69 27.5374C131.69 27.1304 131.791 27.0965 131.791 26.08C131.791 25.2322 131.724 24.893 131.724 24.4539C131.724 24.0808 131.791 24.0469 132.231 23.7086C132.636 23.4712 132.838 23.2338 133.142 21.9807C133.929 18.0052 134.381 13.9699 134.492 9.9179C134.492 7.41088 133.986 7.61351 133.986 6.69617C133.986 6.08658 134.559 6.15441 134.964 6.15441C135.706 6.15441 137.427 6.28921 138.303 6.28921C140.193 6.28921 140.8 6.11965 141.576 6.11965C141.914 6.11965 142.621 6.08573 142.621 6.73008C142.55 7.07387 142.459 7.4135 142.351 7.74747C142.202 8.4838 142.123 9.23268 142.115 9.98403V21.4373C142.115 22.1156 142.216 23.4025 142.756 23.7417C142.958 23.8773 143.498 23.9452 143.498 24.5895C143.47 24.8298 143.425 25.0677 143.363 25.3017C143.335 25.5377 143.324 25.7754 143.329 26.013C143.358 26.5244 143.415 27.0338 143.498 27.5391C143.503 27.6133 143.493 27.6878 143.468 27.7579C143.444 27.8279 143.405 27.8921 143.354 27.9462C143.303 28.0004 143.242 28.0434 143.174 28.0726C143.105 28.1017 143.032 28.1164 142.958 28.1156C142.422 28.1148 142.287 27.4009 141.949 27.0287H141.947ZM137.22 15.1354C136.949 19.205 136.544 20.8616 136.544 21.6747C136.544 22.0477 136.646 22.319 137.489 22.319C138.671 22.319 138.535 21.7434 138.535 21.099V11.9832H138.569C138.569 11.678 138.602 10.9327 138.029 10.9327C137.025 10.9327 137.328 14.0163 137.226 15.1346L137.22 15.1354ZM87.9024 27.0287C86.9579 25.8087 85.6419 25.8087 84.293 25.8087H82.2012C81.5597 25.8087 79.603 25.8087 78.861 27.3678C78.7268 27.6722 78.6593 28.0792 78.1857 28.0792C78.0392 28.0798 77.8979 28.024 77.7912 27.9232C77.6844 27.8224 77.6201 27.6843 77.6117 27.5374C77.6117 27.1304 77.713 27.0965 77.713 26.08C77.713 25.2322 77.6463 24.893 77.6463 24.4539C77.6463 24.0808 77.713 24.0469 78.1528 23.7086C78.5234 23.4712 78.7597 23.2338 79.0636 21.9807C79.8515 18.0052 80.3033 13.9699 80.4142 9.9179C80.4142 7.41088 79.9077 7.61351 79.9077 6.69617C79.9077 6.08658 80.4809 6.15441 80.8861 6.15441C81.6281 6.15441 83.3821 6.28921 84.2254 6.28921C86.1146 6.28921 86.6886 6.11965 87.4981 6.11965C87.8358 6.11965 88.5431 6.08573 88.5431 6.73008C88.4883 7.07766 88.3978 7.41861 88.273 7.74747C88.1128 8.48271 88.0226 9.23162 88.0037 9.98403V21.4373C88.0037 22.1156 88.1379 23.4025 88.6444 23.7417C88.8808 23.8773 89.3864 23.9452 89.3864 24.5895C89.3695 24.829 89.3356 25.067 89.2851 25.3017C89.2572 25.5377 89.2459 25.7754 89.2514 26.013C89.2514 26.8608 89.3856 27.1652 89.3856 27.5391C89.3941 27.6112 89.3874 27.6842 89.3659 27.7535C89.3444 27.8228 89.3086 27.8868 89.2608 27.9412C89.213 27.9956 89.1543 28.0393 89.0885 28.0693C89.0227 28.0994 88.9514 28.1152 88.8791 28.1156C88.3422 28.1148 88.1734 27.4009 87.9024 27.0287ZM83.2142 15.1346C82.9778 19.2041 82.5389 20.8608 82.5389 21.6738C82.5389 22.0469 82.6731 22.3182 83.4834 22.3182C84.6652 22.3182 84.5293 21.7425 84.5293 21.0982V11.9832C84.5293 11.678 84.5968 10.9327 84.0228 10.9327C83.0107 10.9327 83.3146 14.0163 83.2142 15.1346ZM104.636 22.7243C104.729 21.2208 105.168 19.7595 105.919 18.4555C107.133 16.2868 108.314 15.6085 108.314 14.965C107.888 13.2323 107.336 11.5335 106.661 9.88229C105.413 6.73093 105.009 7.0353 105.009 6.66056C105.009 6.3901 105.211 6.08404 106.022 6.08404C106.225 6.07761 106.428 6.08896 106.629 6.11795C107 6.15271 107.439 6.22054 107.811 6.22054C108.127 6.21589 108.442 6.19325 108.756 6.15271C109.058 6.11308 109.362 6.09043 109.667 6.08489C110.376 6.08489 110.443 6.52491 110.443 6.83012C110.437 7.09102 110.415 7.35127 110.376 7.60927C110.336 7.86751 110.314 8.12807 110.308 8.38927C110.308 9.71018 110.882 10.7632 111.219 10.7632C111.589 10.7632 112.063 9.40666 112.063 8.76401C112.05 8.26516 111.844 7.79096 111.489 7.44225C111.32 7.23962 111.017 7.00223 111.017 6.6631C111.017 6.12049 111.658 6.08658 111.962 6.08658C112.637 6.08658 113.143 6.22223 113.582 6.22223C114.155 6.22223 114.661 6.08658 115.032 6.08658C115.741 6.08658 116.214 6.49354 116.214 8.12136C116.113 9.9135 115.439 11.625 114.291 13.0006C113.515 14.018 112.705 14.7293 112.705 15.6772C112.705 16.7955 114.662 21.3356 114.865 21.7773C116.079 24.5217 116.619 24.8608 116.619 25.3381C116.619 25.6773 116.281 25.8129 115.708 25.8129C114.595 25.8129 115.607 25.7112 113.682 25.7112C113.356 25.7057 113.029 25.717 112.704 25.7451C112.469 25.7863 112.232 25.809 111.995 25.8129C111.05 25.8129 111.084 25.2033 111.084 25.1007C111.177 24.6314 111.233 24.1554 111.253 23.6772C111.253 22.559 110.24 19.5772 109.532 19.5772C109.228 19.5772 108.621 20.2893 108.621 21.9155C108.571 22.5016 108.683 23.0902 108.945 23.6165C109.207 24.1427 109.608 24.5859 110.105 24.8973C110.308 24.999 110.679 25.0999 110.679 25.4738C110.679 25.9138 109.667 26.1851 109.06 26.5921C108.318 27.1008 107.812 27.779 107.306 27.779C106.56 27.7756 104.636 25.6722 104.636 22.7251V22.7243ZM119.582 19.8781V12.0849H119.616C119.616 10.9667 119.616 5.95178 124.306 5.95178C128.591 5.95178 128.962 9.47618 128.962 11.7467V19.4042C128.962 21.6738 128.76 25.9774 124.205 25.9774C120.797 25.9774 119.582 23.606 119.582 19.879L119.582 19.8781ZM123.158 13.5754V19.2007C123.158 20.4877 123.226 21.8773 124.34 21.8773C125.622 21.8773 125.453 20.1486 125.453 19.0651V13.6772C125.453 12.6598 125.453 11.1337 124.239 11.1337C123.158 11.1362 123.158 12.6615 123.158 13.5763V13.5754ZM92.3231 19.8781V12.0849C92.3231 10.9667 92.3231 5.95178 97.0131 5.95178C101.332 5.95178 101.702 9.47618 101.702 11.7467V19.4042C101.702 21.6738 101.533 25.9774 96.9455 25.9774C93.5032 25.9774 92.3231 23.606 92.3231 19.879V19.8781ZM95.8684 13.5754V19.2007C95.8684 20.4877 95.9351 21.8773 97.0156 21.8773C98.297 21.8773 98.1619 20.1486 98.1619 19.0651V13.6772C98.1619 12.6598 98.1619 11.1337 96.9481 11.1337C95.8651 11.1362 95.8651 12.6615 95.8651 13.5763L95.8684 13.5754ZM65.572 19.879V12.0849C65.572 10.9667 65.572 5.95178 70.2611 5.95178C74.5458 5.95178 74.9173 9.47618 74.9173 11.7467V19.4042C74.9173 21.6738 74.7484 25.9774 70.1902 25.9774C66.7537 25.9774 65.572 23.606 65.572 19.879ZM69.0801 13.5763V19.2016H69.1139C69.1139 20.4886 69.2152 21.8782 70.2957 21.8782C71.5771 21.8782 71.4082 20.1494 71.4082 19.0659V13.6772C71.4082 12.6598 71.4082 11.1337 70.1944 11.1337C69.0776 11.1362 69.0776 12.6615 69.0776 13.5763H69.0801ZM55.0769 25.6722C54.0513 25.6729 53.0264 25.7295 52.0069 25.8417C51.1627 25.8417 51.0961 25.2652 51.0961 24.9939C51.0961 23.5713 51.703 24.1461 51.703 19.0981V8.86914C51.703 7.68219 51.6692 5.85343 51.6017 5.04037C51.5004 3.88817 51.3653 3.51428 51.3653 2.97337C51.3653 2.09248 51.9393 2.02465 52.3437 2.02465C52.8501 2.02465 53.3566 2.05857 53.896 2.09248C54.4025 2.12639 54.941 2.12639 55.4813 2.12639C56.6631 2.12639 57.4042 2.02465 58.2812 2.02465C59.2942 2.02465 61.8266 2.63424 61.8266 8.36129C61.8266 9.68305 61.6915 11.4787 60.8136 12.5631C60.5435 12.9022 60.1383 13.2414 60.1383 13.5118C60.1383 13.817 60.6448 14.4266 61.0154 15.071C61.9746 16.7486 62.4534 18.6599 62.3989 20.5937C62.3989 23.3067 61.0154 25.846 58.1141 25.846C57.1056 25.733 56.0917 25.675 55.0769 25.6722ZM55.8527 15.9137V20.8616C55.8527 21.3016 55.8189 22.0808 56.9323 22.0808C57.6076 22.0808 58.2483 22.0469 58.2483 20.0816C58.2483 17.7772 56.8977 15.0667 56.1566 15.0667C55.8527 15.0667 55.8527 15.6085 55.8527 15.9137ZM55.8189 7.88227V9.13705H55.8527C55.8347 9.30637 55.853 9.4776 55.9062 9.63925C55.9595 9.8009 56.0466 9.94925 56.1616 10.0743C56.2767 10.1994 56.417 10.2984 56.5732 10.3645C56.7294 10.4307 56.8979 10.4626 57.0674 10.458C58.1133 10.458 58.1133 9.0014 58.1133 8.49271C58.1133 7.17095 57.6068 6.73093 56.831 6.73093C55.9878 6.73178 55.8198 7.40919 55.8198 7.88312L55.8189 7.88227ZM148.257 25.0931C148.35 24.6187 148.485 24.1538 148.663 23.7044C148.923 22.6056 149.048 21.4789 149.034 20.3495V9.74749H149.068C149.068 8.62921 148.798 8.32399 148.224 8.32399C148.031 8.31639 147.841 8.36313 147.674 8.45891C147.507 8.55468 147.37 8.69564 147.278 8.86575C147.144 9.0014 146.908 9.34053 146.537 9.34053C146.334 9.34053 145.896 9.23879 145.896 8.39182C145.896 7.67964 145.997 7.57875 145.997 5.64741C146.002 4.75092 145.934 3.85551 145.795 2.96998C145.795 2.15776 146.302 2.02126 147.448 2.02126C148.112 2.02041 148.776 2.05437 149.437 2.123C149.997 2.21148 150.56 2.26809 151.126 2.29257C152.037 2.29257 152.711 2.123 153.251 2.123C153.758 2.123 153.791 2.36039 153.791 2.52996C153.697 3.1044 153.562 3.67116 153.385 4.22561C153.274 4.95559 153.206 5.69173 153.184 6.42995V11.0082C153.184 11.1778 153.184 11.3804 153.487 11.3804C153.718 11.3218 153.944 11.2426 154.162 11.1439C154.779 10.9222 155.429 10.8076 156.085 10.8047C159.897 10.8047 159.998 14.3961 159.998 15.4805V21.7493C159.998 25.7824 155.947 25.7824 154.938 25.7824C154.398 25.7824 153.925 25.7824 153.385 25.7476C152.745 25.7137 152.069 25.6798 151.43 25.6798C149.372 25.6798 150.923 25.8155 149.034 25.8155C148.663 25.8087 148.258 25.6722 148.258 25.0965L148.257 25.0931ZM153.217 17.2999V19.5695C153.217 21.7383 153.419 22.0766 154.364 22.0766C155.208 22.0766 155.916 21.9417 155.916 20.4165V17.1337C155.916 16.3885 155.849 15.2363 154.6 15.2363C153.15 15.2363 153.217 16.5581 153.217 17.3033L153.217 17.2999Z" fill="white"/>
</svg>
